<svg width="262" height="400" viewBox="0 0 262 400" fill="none" xmlns="http://www.w3.org/2000/svg">
<rect width="262" height="400" rx="12" fill="#E5E8FF"/>
<path d="M63.2044 195.5L69.3454 179.722H73.1174L79.2814 195.5H76.0384L74.7734 192.142H67.5514L66.2864 195.5H63.2044ZM68.4944 189.612H73.8074L72.2204 185.334C72.159 185.181 72.0824 184.989 71.9904 184.759C71.9137 184.514 71.8294 184.253 71.7374 183.977C71.6454 183.686 71.5534 183.394 71.4614 183.103C71.3694 182.812 71.285 182.551 71.2084 182.321H71.0934C71.0014 182.628 70.8864 182.98 70.7484 183.379C70.6257 183.778 70.503 184.153 70.3804 184.506C70.2577 184.859 70.158 185.135 70.0814 185.334L68.4944 189.612ZM81.144 195.5V179.722H87.469C89.0637 179.722 90.4283 180.006 91.563 180.573C92.6977 181.14 93.5717 182.007 94.185 183.172C94.7983 184.322 95.105 185.802 95.105 187.611C95.105 189.405 94.7983 190.885 94.185 192.05C93.5717 193.215 92.6977 194.082 91.563 194.649C90.4283 195.216 89.0637 195.5 87.469 195.5H81.144ZM84.134 192.947H87.469C88.205 192.947 88.8567 192.84 89.424 192.625C89.9913 192.41 90.4667 192.096 90.85 191.682C91.2333 191.253 91.5247 190.724 91.724 190.095C91.9233 189.451 92.023 188.707 92.023 187.864V187.381C92.023 186.522 91.9233 185.779 91.724 185.15C91.5247 184.506 91.2333 183.977 90.85 183.563C90.4667 183.134 89.9913 182.812 89.424 182.597C88.8567 182.382 88.205 182.275 87.469 182.275H84.134V192.947ZM102.482 195.5V179.722H111.084C111.927 179.722 112.679 179.883 113.338 180.205C114.013 180.527 114.542 180.979 114.925 181.562C115.308 182.145 115.5 182.827 115.5 183.609C115.5 184.207 115.385 184.751 115.155 185.242C114.925 185.733 114.611 186.147 114.212 186.484C113.829 186.806 113.392 187.051 112.901 187.22V187.312C113.484 187.435 114.005 187.672 114.465 188.025C114.925 188.362 115.285 188.799 115.546 189.336C115.807 189.857 115.937 190.463 115.937 191.153C115.937 192.134 115.715 192.947 115.27 193.591C114.841 194.235 114.258 194.718 113.522 195.04C112.801 195.347 111.989 195.5 111.084 195.5H102.482ZM105.472 192.947H110.693C111.322 192.947 111.835 192.778 112.234 192.441C112.648 192.088 112.855 191.544 112.855 190.808C112.855 190.379 112.771 190.003 112.602 189.681C112.433 189.359 112.173 189.114 111.82 188.945C111.483 188.761 111.046 188.669 110.509 188.669H105.472V192.947ZM105.472 186.162H110.302C110.762 186.162 111.145 186.078 111.452 185.909C111.774 185.74 112.012 185.51 112.165 185.219C112.334 184.928 112.418 184.606 112.418 184.253C112.418 183.578 112.234 183.08 111.866 182.758C111.513 182.436 111.046 182.275 110.463 182.275H105.472V186.162ZM117.088 195.5L123.229 179.722H127.001L133.165 195.5H129.922L128.657 192.142H121.435L120.17 195.5H117.088ZM122.378 189.612H127.691L126.104 185.334C126.043 185.181 125.966 184.989 125.874 184.759C125.797 184.514 125.713 184.253 125.621 183.977C125.529 183.686 125.437 183.394 125.345 183.103C125.253 182.812 125.169 182.551 125.092 182.321H124.977C124.885 182.628 124.77 182.98 124.632 183.379C124.509 183.778 124.387 184.153 124.264 184.506C124.141 184.859 124.042 185.135 123.965 185.334L122.378 189.612ZM135.028 195.5V179.722H137.88L144.619 189.037C144.695 189.129 144.787 189.259 144.895 189.428C145.002 189.581 145.102 189.735 145.194 189.888C145.286 190.041 145.347 190.164 145.378 190.256H145.493C145.493 190.041 145.493 189.834 145.493 189.635C145.493 189.436 145.493 189.236 145.493 189.037V179.722H148.368V195.5H145.539L138.777 186.116C138.654 185.932 138.508 185.71 138.34 185.449C138.186 185.173 138.079 184.981 138.018 184.874H137.903C137.903 185.073 137.903 185.28 137.903 185.495C137.903 185.694 137.903 185.901 137.903 186.116V195.5H135.028ZM151.873 195.5V179.722H154.725L161.464 189.037C161.541 189.129 161.633 189.259 161.74 189.428C161.848 189.581 161.947 189.735 162.039 189.888C162.131 190.041 162.193 190.164 162.223 190.256H162.338C162.338 190.041 162.338 189.834 162.338 189.635C162.338 189.436 162.338 189.236 162.338 189.037V179.722H165.213V195.5H162.384L155.622 186.116C155.5 185.932 155.354 185.71 155.185 185.449C155.032 185.173 154.925 184.981 154.863 184.874H154.748C154.748 185.073 154.748 185.28 154.748 185.495C154.748 185.694 154.748 185.901 154.748 186.116V195.5H151.873ZM168.719 195.5V179.722H181.024V182.275H171.709V186.162H180.012V188.715H171.709V192.947H181.162V195.5H168.719ZM184.172 195.5V179.722H192.475C193.641 179.722 194.607 179.921 195.373 180.32C196.14 180.719 196.715 181.286 197.098 182.022C197.482 182.758 197.673 183.624 197.673 184.621C197.673 185.648 197.443 186.561 196.983 187.358C196.523 188.14 195.849 188.73 194.959 189.129L198.225 195.5H194.959L192.061 189.635H187.162V195.5H184.172ZM187.162 187.128H192.245C193.012 187.128 193.602 186.906 194.016 186.461C194.43 186.016 194.637 185.403 194.637 184.621C194.637 184.115 194.545 183.693 194.361 183.356C194.177 183.003 193.909 182.735 193.556 182.551C193.204 182.367 192.767 182.275 192.245 182.275H187.162V187.128Z" fill="#767CFF"/>
<path d="M79.7932 223.5V222.605L83.154 218.926C83.5484 218.495 83.8733 218.121 84.1285 217.803C84.3837 217.481 84.5726 217.179 84.6952 216.898C84.8212 216.613 84.8841 216.314 84.8841 216.003C84.8841 215.645 84.798 215.335 84.6256 215.073C84.4566 214.811 84.2246 214.609 83.9296 214.467C83.6346 214.324 83.3032 214.253 82.9353 214.253C82.5442 214.253 82.2028 214.334 81.9111 214.496C81.6228 214.656 81.3991 214.879 81.24 215.168C81.0842 215.456 81.0063 215.794 81.0063 216.182H79.833C79.833 215.585 79.9706 215.062 80.2456 214.611C80.5207 214.16 80.8953 213.809 81.3692 213.557C81.8465 213.305 82.3818 213.179 82.9751 213.179C83.5716 213.179 84.1003 213.305 84.561 213.557C85.0217 213.809 85.383 214.148 85.6448 214.576C85.9066 215.004 86.0376 215.479 86.0376 216.003C86.0376 216.377 85.9696 216.744 85.8337 217.102C85.7011 217.456 85.4691 217.852 85.1377 218.29C84.8096 218.724 84.3538 219.254 83.7705 219.881L81.4836 222.327V222.406H86.2165V223.5H79.7932ZM91.6505 223.639C91.2329 223.633 90.8153 223.553 90.3976 223.401C89.98 223.248 89.5989 222.991 89.2542 222.63C88.9095 222.265 88.6327 221.773 88.4239 221.153C88.2151 220.53 88.1107 219.748 88.1107 218.807C88.1107 217.905 88.1952 217.107 88.3643 216.411C88.5333 215.711 88.7786 215.123 89.1001 214.646C89.4215 214.165 89.8093 213.8 90.2634 213.552C90.7208 213.303 91.2362 213.179 91.8096 213.179C92.3796 213.179 92.8867 213.293 93.3309 213.522C93.7783 213.747 94.1429 214.062 94.4246 214.467C94.7064 214.871 94.8886 215.337 94.9715 215.864H93.7584C93.6457 215.406 93.427 215.027 93.1022 214.725C92.7774 214.424 92.3465 214.273 91.8096 214.273C91.0207 214.273 90.3993 214.616 89.9452 215.302C89.4945 215.988 89.2674 216.951 89.2641 218.19H89.3437C89.5293 217.909 89.7497 217.668 90.0049 217.469C90.2634 217.267 90.5484 217.112 90.86 217.002C91.1715 216.893 91.5013 216.838 91.8493 216.838C92.4327 216.838 92.9663 216.984 93.4502 217.276C93.9341 217.564 94.3219 217.963 94.6135 218.474C94.9052 218.981 95.051 219.562 95.051 220.219C95.051 220.848 94.9102 221.425 94.6285 221.949C94.3467 222.469 93.9507 222.884 93.4403 223.192C92.9332 223.497 92.3366 223.646 91.6505 223.639ZM91.6505 222.545C92.0681 222.545 92.4426 222.441 92.7741 222.232C93.1088 222.023 93.3723 221.743 93.5645 221.392C93.7601 221.041 93.8579 220.65 93.8579 220.219C93.8579 219.798 93.7634 219.415 93.5745 219.07C93.3889 218.722 93.132 218.446 92.8039 218.24C92.4791 218.035 92.1079 217.932 91.6903 217.932C91.3754 217.932 91.0821 217.995 90.8103 218.121C90.5385 218.243 90.2999 218.412 90.0944 218.628C89.8922 218.843 89.7331 219.09 89.6171 219.369C89.5011 219.644 89.4431 219.934 89.4431 220.239C89.4431 220.643 89.5376 221.021 89.7265 221.372C89.9187 221.723 90.1805 222.007 90.512 222.222C90.8467 222.438 91.2262 222.545 91.6505 222.545ZM97.0061 223.5V222.605L100.367 218.926C100.761 218.495 101.086 218.121 101.341 217.803C101.597 217.481 101.785 217.179 101.908 216.898C102.034 216.613 102.097 216.314 102.097 216.003C102.097 215.645 102.011 215.335 101.839 215.073C101.669 214.811 101.437 214.609 101.142 214.467C100.848 214.324 100.516 214.253 100.148 214.253C99.7571 214.253 99.4157 214.334 99.124 214.496C98.8357 214.656 98.6119 214.879 98.4529 215.168C98.2971 215.456 98.2192 215.794 98.2192 216.182H97.0459C97.0459 215.585 97.1834 215.062 97.4585 214.611C97.7336 214.16 98.1082 213.809 98.5821 213.557C99.0594 213.305 99.5947 213.179 100.188 213.179C100.785 213.179 101.313 213.305 101.774 213.557C102.235 213.809 102.596 214.148 102.858 214.576C103.12 215.004 103.25 215.479 103.25 216.003C103.25 216.377 103.182 216.744 103.047 217.102C102.914 217.456 102.682 217.852 102.351 218.29C102.022 218.724 101.567 219.254 100.983 219.881L98.6965 222.327V222.406H103.429V223.5H97.0061ZM105.503 226.364V215.864H106.636V217.077H106.775C106.861 216.944 106.981 216.775 107.133 216.57C107.289 216.361 107.511 216.175 107.799 216.013C108.091 215.847 108.486 215.764 108.983 215.764C109.626 215.764 110.192 215.925 110.683 216.246C111.174 216.568 111.556 217.024 111.831 217.614C112.107 218.204 112.244 218.9 112.244 219.702C112.244 220.51 112.107 221.211 111.831 221.805C111.556 222.395 111.175 222.852 110.688 223.177C110.201 223.498 109.639 223.659 109.003 223.659C108.512 223.659 108.119 223.578 107.824 223.415C107.529 223.25 107.302 223.062 107.143 222.854C106.984 222.642 106.861 222.466 106.775 222.327H106.676V226.364H105.503ZM106.656 219.682C106.656 220.259 106.741 220.767 106.91 221.208C107.079 221.646 107.325 221.989 107.65 222.237C107.975 222.482 108.373 222.605 108.843 222.605C109.334 222.605 109.743 222.476 110.071 222.217C110.403 221.955 110.651 221.604 110.817 221.163C110.986 220.719 111.071 220.225 111.071 219.682C111.071 219.145 110.988 218.661 110.822 218.23C110.66 217.796 110.413 217.453 110.081 217.201C109.753 216.946 109.341 216.818 108.843 216.818C108.366 216.818 107.965 216.939 107.64 217.181C107.316 217.42 107.07 217.754 106.905 218.185C106.739 218.613 106.656 219.112 106.656 219.682ZM114.594 215.864L116.424 218.986L118.253 215.864H119.606L117.14 219.682L119.606 223.5H118.253L116.424 220.537L114.594 223.5H113.242L115.668 219.682L113.242 215.864H114.594ZM125.973 213.318L128.598 217.554H128.678L131.303 213.318H132.754L129.553 218.409L132.754 223.5H131.303L128.678 219.344H128.598L125.973 223.5H124.521L127.803 218.409L124.521 213.318H125.973ZM141.816 221.412V220.398L146.291 213.318H147.027V214.889H146.529L143.149 220.239V220.318H149.174V221.412H141.816ZM146.609 223.5V221.104V220.631V213.318H147.782V223.5H146.609ZM154.358 223.639C153.609 223.639 152.971 223.435 152.444 223.028C151.917 222.617 151.515 222.022 151.236 221.243C150.958 220.461 150.819 219.516 150.819 218.409C150.819 217.309 150.958 216.369 151.236 215.59C151.518 214.808 151.922 214.211 152.449 213.8C152.98 213.386 153.616 213.179 154.358 213.179C155.101 213.179 155.736 213.386 156.263 213.8C156.793 214.211 157.197 214.808 157.476 215.59C157.757 216.369 157.898 217.309 157.898 218.409C157.898 219.516 157.759 220.461 157.481 221.243C157.202 222.022 156.799 222.617 156.272 223.028C155.745 223.435 155.107 223.639 154.358 223.639ZM154.358 222.545C155.101 222.545 155.678 222.187 156.089 221.472C156.499 220.756 156.705 219.735 156.705 218.409C156.705 217.527 156.611 216.777 156.422 216.157C156.236 215.537 155.968 215.065 155.616 214.74C155.268 214.415 154.849 214.253 154.358 214.253C153.623 214.253 153.048 214.616 152.633 215.342C152.219 216.064 152.012 217.087 152.012 218.409C152.012 219.291 152.105 220.04 152.29 220.656C152.476 221.273 152.743 221.742 153.091 222.063C153.442 222.385 153.865 222.545 154.358 222.545ZM163.108 223.639C162.359 223.639 161.721 223.435 161.194 223.028C160.667 222.617 160.265 222.022 159.986 221.243C159.708 220.461 159.569 219.516 159.569 218.409C159.569 217.309 159.708 216.369 159.986 215.59C160.268 214.808 160.672 214.211 161.199 213.8C161.73 213.386 162.366 213.179 163.108 213.179C163.851 213.179 164.486 213.386 165.013 213.8C165.543 214.211 165.947 214.808 166.226 215.59C166.507 216.369 166.648 217.309 166.648 218.409C166.648 219.516 166.509 220.461 166.231 221.243C165.952 222.022 165.549 222.617 165.022 223.028C164.495 223.435 163.857 223.639 163.108 223.639ZM163.108 222.545C163.851 222.545 164.428 222.187 164.839 221.472C165.249 220.756 165.455 219.735 165.455 218.409C165.455 217.527 165.361 216.777 165.172 216.157C164.986 215.537 164.718 215.065 164.366 214.74C164.018 214.415 163.599 214.253 163.108 214.253C162.373 214.253 161.798 214.616 161.383 215.342C160.969 216.064 160.762 217.087 160.762 218.409C160.762 219.291 160.855 220.04 161.04 220.656C161.226 221.273 161.493 221.742 161.841 222.063C162.192 222.385 162.615 222.545 163.108 222.545ZM168.557 226.364V215.864H169.691V217.077H169.83C169.916 216.944 170.035 216.775 170.188 216.57C170.344 216.361 170.566 216.175 170.854 216.013C171.146 215.847 171.54 215.764 172.037 215.764C172.68 215.764 173.247 215.925 173.738 216.246C174.228 216.568 174.611 217.024 174.886 217.614C175.161 218.204 175.299 218.9 175.299 219.702C175.299 220.51 175.161 221.211 174.886 221.805C174.611 222.395 174.23 222.852 173.743 223.177C173.255 223.498 172.694 223.659 172.057 223.659C171.567 223.659 171.174 223.578 170.879 223.415C170.584 223.25 170.357 223.062 170.198 222.854C170.039 222.642 169.916 222.466 169.83 222.327H169.731V226.364H168.557ZM169.711 219.682C169.711 220.259 169.795 220.767 169.964 221.208C170.133 221.646 170.38 221.989 170.705 222.237C171.03 222.482 171.428 222.605 171.898 222.605C172.389 222.605 172.798 222.476 173.126 222.217C173.458 221.955 173.706 221.604 173.872 221.163C174.041 220.719 174.125 220.225 174.125 219.682C174.125 219.145 174.043 218.661 173.877 218.23C173.714 217.796 173.468 217.453 173.136 217.201C172.808 216.946 172.395 216.818 171.898 216.818C171.421 216.818 171.02 216.939 170.695 217.181C170.37 217.42 170.125 217.754 169.959 218.185C169.794 218.613 169.711 219.112 169.711 219.682ZM177.649 215.864L179.479 218.986L181.308 215.864H182.66L180.195 219.682L182.66 223.5H181.308L179.479 220.537L177.649 223.5H176.297L178.723 219.682L176.297 215.864H177.649Z" fill="#767CFF"/>
</svg>
