<svg width="14" height="14" viewBox="0 0 14 14" fill="none" xmlns="http://www.w3.org/2000/svg">
<path d="M7 0.5C6.122 0.5 5.28694 0.681 4.52344 1H4.5H1H0V2V4V5H0.820312C0.615313 5.631 0.5 6.3015 0.5 7C0.5 10.584 3.416 13.5 7 13.5C9.698 13.5 12.0136 11.846 12.9951 9.5H13H14V8.5V6.5V5.5H13.3145C12.635 2.638 10.0665 0.5 7 0.5ZM7 1.5C7.169 1.5 7.335 1.51039 7.5 1.52539V2H8.5V1.71289C9.729 2.06239 10.783 2.82716 11.5 3.84766V5.5H9.5H8.5V6.5V7H7.5L7 7.5V8L6.5 8.5V9.5L7.5 10.2998L6.51172 12.4756C3.70722 12.2261 1.5 9.8675 1.5 7C1.5 6.293 1.64122 5.6205 1.88672 5H3.08594L3.1123 5.02637L3.5 6.5L5.30957 7.22363L5.5 7.41406V7.2998L6 7.5H6.5V7L5.5 6.66602V5.5H6.5L7 4.25L8 3.5V3L6.5 2L5.78125 1.64062C6.17375 1.55163 6.5805 1.5 7 1.5ZM1 2H4.5V5L3.5 4H1V2ZM6.5 6V6.5H7.5V6H6.5ZM9.5 6.5H13V8.5H10.5L9.5 9.5V6.5ZM10.9141 9.5H11.8926C11.8801 9.5255 11.869 9.55263 11.8555 9.57812C11.84 9.60763 11.8231 9.63654 11.8066 9.66504C11.7366 9.79104 11.6625 9.9132 11.583 10.0332C11.5675 10.0567 11.5512 10.081 11.5352 10.1045C11.4512 10.227 11.3621 10.3459 11.2686 10.4609C11.2531 10.4799 11.2391 10.4981 11.2236 10.5166C11.1266 10.6331 11.024 10.7445 10.918 10.8525C10.9025 10.868 10.8876 10.8849 10.8721 10.9004C10.7636 11.0079 10.6502 11.111 10.5332 11.209C10.5167 11.223 10.5024 11.2375 10.4854 11.251C10.3684 11.347 10.2451 11.4365 10.1201 11.5225C10.1006 11.536 10.084 11.5515 10.0645 11.5645C9.94495 11.645 9.82034 11.7181 9.69434 11.7891C9.10734 12.1186 8.45479 12.3454 7.75879 12.4404L8.5 11.8818V11.9141L8.63184 11.7832L9.76465 10.9287L10.3145 10.3789L10.5908 9.82422L10.9141 9.5Z" fill="#F6F7F9"/>
</svg>
