<svg width="14" height="14" viewBox="0 0 14 14" fill="none" xmlns="http://www.w3.org/2000/svg">
<path d="M3.32857 0C3.06685 0 2.80904 0.09375 2.59419 0.265625L2.56294 0.28125L2.54732 0.296875L0.984817 1.90625L1.00044 1.92188C0.51802 2.36719 0.369583 3.0332 0.578567 3.60938C0.58052 3.61328 0.576614 3.62109 0.578567 3.625C1.0024 4.83789 2.08638 7.17969 4.20357 9.29688C6.32857 11.4219 8.70161 12.4629 9.87544 12.9219H9.89107C10.4985 13.125 11.1567 12.9805 11.6254 12.5781L13.2036 11C13.6176 10.5859 13.6176 9.86719 13.2036 9.45312L11.1723 7.42188L11.1567 7.39062C10.7426 6.97656 10.0083 6.97656 9.59419 7.39062L8.59419 8.39062C8.23286 8.2168 7.37154 7.77148 6.54732 6.98438C5.72896 6.20312 5.31099 5.30469 5.15669 4.95312L6.15669 3.95312C6.57661 3.5332 6.58443 2.83398 6.14107 2.42188L6.15669 2.40625L6.10982 2.35938L4.10982 0.296875L4.09419 0.28125L4.06294 0.265625C3.8481 0.09375 3.59029 0 3.32857 0ZM3.32857 1C3.36568 1 3.40279 1.01758 3.43794 1.04688L5.43794 3.09375L5.48482 3.14062C5.48091 3.13672 5.51411 3.18945 5.45357 3.25L4.20357 4.5L3.96919 4.71875L4.07857 5.03125C4.07857 5.03125 4.65279 6.56836 5.85982 7.71875L5.96919 7.8125C7.1313 8.87305 8.50044 9.45312 8.50044 9.45312L8.81294 9.59375L10.2973 8.10938C10.3833 8.02344 10.3676 8.02344 10.4536 8.10938L12.5004 10.1562C12.5864 10.2422 12.5864 10.2109 12.5004 10.2969L10.9692 11.8281C10.7387 12.0254 10.4946 12.0664 10.2036 11.9688C9.07076 11.5234 6.86958 10.5566 4.90669 8.59375C2.92818 6.61523 1.89497 4.37109 1.51607 3.28125C1.4399 3.07812 1.49458 2.77734 1.67232 2.625L1.70357 2.59375L3.21919 1.04688C3.25435 1.01758 3.29146 1 3.32857 1Z" fill="white"/>
</svg>
