<svg width="14" height="14" viewBox="0 0 14 14" fill="none" xmlns="http://www.w3.org/2000/svg">
<path d="M3.32857 0.5C3.06685 0.5 2.80904 0.59375 2.59419 0.765625L2.56294 0.78125L2.54732 0.796875L0.984817 2.40625L1.00044 2.42188C0.51802 2.86719 0.369583 3.5332 0.578567 4.10938C0.58052 4.11328 0.576614 4.12109 0.578567 4.125C1.0024 5.33789 2.08638 7.67969 4.20357 9.79688C6.32857 11.9219 8.70161 12.9629 9.87544 13.4219H9.89107C10.4985 13.625 11.1567 13.4805 11.6254 13.0781L13.2036 11.5C13.6176 11.0859 13.6176 10.3672 13.2036 9.95312L11.1723 7.92188L11.1567 7.89062C10.7426 7.47656 10.0083 7.47656 9.59419 7.89062L8.59419 8.89062C8.23286 8.7168 7.37154 8.27148 6.54732 7.48438C5.72896 6.70312 5.31099 5.80469 5.15669 5.45312L6.15669 4.45312C6.57661 4.0332 6.58443 3.33398 6.14107 2.92188L6.15669 2.90625L6.10982 2.85938L4.10982 0.796875L4.09419 0.78125L4.06294 0.765625C3.8481 0.59375 3.59029 0.5 3.32857 0.5ZM3.32857 1.5C3.36568 1.5 3.40279 1.51758 3.43794 1.54688L5.43794 3.59375L5.48482 3.64062C5.48091 3.63672 5.51411 3.68945 5.45357 3.75L4.20357 5L3.96919 5.21875L4.07857 5.53125C4.07857 5.53125 4.65279 7.06836 5.85982 8.21875L5.96919 8.3125C7.1313 9.37305 8.50044 9.95312 8.50044 9.95312L8.81294 10.0938L10.2973 8.60938C10.3833 8.52344 10.3676 8.52344 10.4536 8.60938L12.5004 10.6562C12.5864 10.7422 12.5864 10.7109 12.5004 10.7969L10.9692 12.3281C10.7387 12.5254 10.4946 12.5664 10.2036 12.4688C9.07076 12.0234 6.86958 11.0566 4.90669 9.09375C2.92818 7.11523 1.89497 4.87109 1.51607 3.78125C1.4399 3.57812 1.49458 3.27734 1.67232 3.125L1.70357 3.09375L3.21919 1.54688C3.25435 1.51758 3.29146 1.5 3.32857 1.5Z" fill="white"/>
</svg>
