<svg width="26" height="26" viewBox="0 0 26 26" fill="none" xmlns="http://www.w3.org/2000/svg">
<path d="M12.9848 0.250105C12.7083 0.254147 12.4443 0.365812 12.2488 0.561384L7.99878 4.81138C7.89681 4.90929 7.8154 5.02656 7.75932 5.15632C7.70324 5.28608 7.67361 5.42572 7.67217 5.56708C7.67074 5.70843 7.69752 5.84865 7.75095 5.97953C7.80438 6.1104 7.88339 6.2293 7.98335 6.32926C8.08331 6.42921 8.2022 6.50822 8.33308 6.56165C8.46395 6.61509 8.60417 6.64187 8.74553 6.64043C8.88688 6.63899 9.02653 6.60937 9.15629 6.55329C9.28605 6.4972 9.40332 6.41579 9.50122 6.31383L11.9375 3.87755V19.0209C11.9355 19.1617 11.9615 19.3015 12.014 19.4322C12.0665 19.5628 12.1445 19.6817 12.2433 19.782C12.3422 19.8823 12.46 19.9619 12.5899 20.0162C12.7198 20.0706 12.8592 20.0986 13 20.0986C13.1408 20.0986 13.2802 20.0706 13.4101 20.0162C13.54 19.9619 13.6578 19.8823 13.7567 19.782C13.8555 19.6817 13.9335 19.5628 13.986 19.4322C14.0385 19.3015 14.0645 19.1617 14.0625 19.0209V3.87755L16.4988 6.31383C16.5967 6.41579 16.714 6.4972 16.8437 6.55329C16.9735 6.60937 17.1131 6.63899 17.2545 6.64043C17.3958 6.64187 17.536 6.61509 17.6669 6.56165C17.7978 6.50822 17.9167 6.42921 18.0167 6.32926C18.1166 6.2293 18.1956 6.1104 18.2491 5.97953C18.3025 5.84865 18.3293 5.70843 18.3278 5.56708C18.3264 5.42572 18.2968 5.28608 18.2407 5.15632C18.1846 5.02656 18.1032 4.90929 18.0012 4.81138L13.7512 0.561384C13.6508 0.460891 13.5312 0.381565 13.3995 0.328098C13.2679 0.274632 13.1269 0.248111 12.9848 0.250105ZM4.14583 8.04177C2.00683 8.04177 0.25 9.7986 0.25 11.9376V21.8543C0.25 23.9933 2.00683 25.7501 4.14583 25.7501H21.8542C23.9932 25.7501 25.75 23.9933 25.75 21.8543V11.9376C25.75 9.7986 23.9932 8.04177 21.8542 8.04177H20.4375C20.2967 8.03978 20.1569 8.06579 20.0263 8.11829C19.8956 8.1708 19.7767 8.24874 19.6764 8.3476C19.5762 8.44646 19.4965 8.56426 19.4422 8.69416C19.3879 8.82406 19.3599 8.96346 19.3599 9.10427C19.3599 9.24508 19.3879 9.38448 19.4422 9.51438C19.4965 9.64428 19.5762 9.76208 19.6764 9.86094C19.7767 9.9598 19.8956 10.0377 20.0263 10.0902C20.1569 10.1428 20.2967 10.1688 20.4375 10.1668H21.8542C22.8446 10.1668 23.625 10.9472 23.625 11.9376V21.8543C23.625 22.8447 22.8446 23.6251 21.8542 23.6251H4.14583C3.15542 23.6251 2.375 22.8447 2.375 21.8543V11.9376C2.375 10.9472 3.15542 10.1668 4.14583 10.1668H5.5625C5.70329 10.1688 5.84308 10.1428 5.97373 10.0902C6.10439 10.0377 6.2233 9.9598 6.32357 9.86094C6.42384 9.76208 6.50346 9.64428 6.5578 9.51438C6.61215 9.38448 6.64013 9.24508 6.64013 9.10427C6.64013 8.96346 6.61215 8.82406 6.5578 8.69416C6.50346 8.56426 6.42384 8.44646 6.32357 8.3476C6.2233 8.24874 6.10439 8.1708 5.97373 8.11829C5.84308 8.06579 5.70329 8.03978 5.5625 8.04177H4.14583Z" fill="#439EED"/>
</svg>
