<svg width="49" height="48" viewBox="0 0 49 48" fill="none" xmlns="http://www.w3.org/2000/svg">
<circle cx="24.5" cy="24" r="20" fill="#1DA1F2"/>
<path fill-rule="evenodd" clip-rule="evenodd" d="M36.5 16.3086C35.6177 16.7006 34.6681 16.9646 33.6722 17.0838C34.6889 16.4742 35.4697 15.5095 35.8368 14.36C34.8865 14.9247 33.8314 15.3335 32.7107 15.5551C31.8123 14.5984 30.5316 14 29.1165 14C26.3975 14 24.1928 16.2047 24.1928 18.9237C24.1928 19.3092 24.2368 19.6852 24.3208 20.046C20.2283 19.8412 16.6005 17.8805 14.1719 14.9015C13.7479 15.6287 13.5055 16.4742 13.5055 17.3766C13.5055 19.0845 14.3735 20.5916 15.6958 21.4747C14.8878 21.4491 14.1295 21.2275 13.4647 20.8587V20.9203C13.4647 23.3066 15.163 25.296 17.4141 25.7496C17.0013 25.8616 16.5661 25.9224 16.1174 25.9224C15.7998 25.9224 15.491 25.8912 15.1902 25.8336C15.8166 27.7895 17.6357 29.2134 19.7899 29.2534C18.1052 30.5733 15.9822 31.3612 13.6751 31.3612C13.2767 31.3612 12.8848 31.338 12.5 31.2916C14.6791 32.6884 17.2669 33.5043 20.0475 33.5043C29.1037 33.5043 34.0562 26.0016 34.0562 19.4956C34.0562 19.282 34.0522 19.0693 34.0418 18.8589C35.0049 18.1629 35.84 17.2958 36.5 16.3086Z" fill="white"/>
</svg>
