<svg width="16" height="21" viewBox="0 0 16 21" fill="none" xmlns="http://www.w3.org/2000/svg">
<path d="M8 0.5C7.2 0.5 6.5 1.2 6.5 2V2.69531C3.90808 3.35916 2 5.69554 2 8.5V13.3379L1.2793 15.5H0V17.5H6.27148C6.0961 17.8038 6.00369 18.1483 6.00353 18.4991C6.00338 18.8499 6.09548 19.1945 6.2706 19.4985C6.44572 19.8024 6.69769 20.0549 7.00124 20.2307C7.30479 20.4065 7.64923 20.4994 8 20.5C8.3511 20.5001 8.69604 20.4077 9.00013 20.2322C9.30422 20.0567 9.55675 19.8042 9.73233 19.5002C9.90791 19.1961 10.0004 18.8512 10.0004 18.5001C10.0004 18.149 9.90797 17.8041 9.73242 17.5H16V15.5H14.7207L14 13.3379V8.5C14 5.69554 12.0919 3.35916 9.5 2.69531V2C9.5 1.2 8.8 0.5 8 0.5ZM8 4.5C10.2762 4.5 12 6.22381 12 8.5V13.6621L12.6113 15.5H3.38867L4 13.6621V8.5C4 6.22381 5.72381 4.5 8 4.5Z" fill="#434F61"/>
</svg>
