<svg width="10" height="14" viewBox="0 0 10 14" fill="none" xmlns="http://www.w3.org/2000/svg">
<path d="M4.16663 0.333984C4.07709 0.333989 3.98919 0.358037 3.91212 0.403617C3.83505 0.449197 3.77163 0.514636 3.72848 0.593099L0.0618168 7.25977C0.0199753 7.3359 -0.00130851 7.42163 6.22646e-05 7.50849C0.00143304 7.59536 0.0254111 7.68037 0.0696341 7.75514C0.113857 7.82992 0.176799 7.89189 0.252259 7.93494C0.327718 7.97799 0.413092 8.00064 0.499968 8.00065H2.75387L0.704395 12.9772C0.660671 13.084 0.655255 13.2027 0.689064 13.3131C0.722873 13.4235 0.793826 13.5187 0.889883 13.5827C0.985941 13.6468 1.10119 13.6756 1.21607 13.6643C1.33095 13.653 1.43838 13.6023 1.52015 13.5208L9.85348 5.1875C9.92337 5.11756 9.97096 5.02848 9.99023 4.93151C10.0095 4.83454 9.9996 4.73403 9.96176 4.64268C9.92393 4.55134 9.85987 4.47326 9.77767 4.41832C9.69547 4.36337 9.59884 4.33402 9.49997 4.33398H7.37041L9.26494 1.08594C9.30924 1.00998 9.33272 0.923677 9.33302 0.835744C9.33332 0.747811 9.31043 0.661354 9.26665 0.585091C9.22288 0.508829 9.15977 0.445459 9.08368 0.401372C9.0076 0.357286 8.92124 0.334042 8.8333 0.333984H4.16663ZM4.46221 1.33398H7.96286L6.06833 4.58203C6.02403 4.65799 6.00055 4.74429 6.00025 4.83222C5.99995 4.92016 6.02284 5.00662 6.06661 5.08288C6.11039 5.15914 6.1735 5.22251 6.24959 5.2666C6.32567 5.31068 6.41203 5.33393 6.49997 5.33398H8.29294L2.5807 11.0462L3.96221 7.69076C3.99341 7.61483 4.00543 7.53238 3.99723 7.4507C3.98902 7.36902 3.96083 7.29062 3.91514 7.22242C3.86946 7.15422 3.80769 7.09831 3.73528 7.05963C3.66287 7.02095 3.58206 7.0007 3.49997 7.00065H1.34567L4.46221 1.33398Z" fill="#FF9799"/>
</svg>
