<svg width="42" height="42" viewBox="0 0 42 42" fill="none" xmlns="http://www.w3.org/2000/svg">
<path d="M4.66667 0C2.08833 0 0 2.08833 0 4.66667V28C0 30.5783 2.08833 32.6667 4.66667 32.6667H14V14C14 8.84567 18.179 4.66667 23.3333 4.66667C23.3333 2.08833 21.245 0 18.6667 0H4.66667ZM5.83333 4.66667H8.16667C8.81067 4.66667 9.33333 5.18933 9.33333 5.83333V8.16667C9.33333 8.81067 8.81067 9.33333 8.16667 9.33333H5.83333C5.18933 9.33333 4.66667 8.81067 4.66667 8.16667V5.83333C4.66667 5.18933 5.18933 4.66667 5.83333 4.66667ZM23.3333 9.33333C20.755 9.33333 18.6667 11.4217 18.6667 14V37.3333C18.6667 39.9117 20.755 42 23.3333 42H37.3333C39.9117 42 42 39.9117 42 37.3333V14C42 11.4217 39.9117 9.33333 37.3333 9.33333H23.3333ZM5.83333 14H8.16667C8.81067 14 9.33333 14.5227 9.33333 15.1667V17.5C9.33333 18.144 8.81067 18.6667 8.16667 18.6667H5.83333C5.18933 18.6667 4.66667 18.144 4.66667 17.5V15.1667C4.66667 14.5227 5.18933 14 5.83333 14ZM24.5 14H26.8333C27.4773 14 28 14.5227 28 15.1667V17.5C28 18.144 27.4773 18.6667 26.8333 18.6667H24.5C23.856 18.6667 23.3333 18.144 23.3333 17.5V15.1667C23.3333 14.5227 23.856 14 24.5 14ZM33.8333 14H36.1667C36.8107 14 37.3333 14.5227 37.3333 15.1667V17.5C37.3333 18.144 36.8107 18.6667 36.1667 18.6667H33.8333C33.1893 18.6667 32.6667 18.144 32.6667 17.5V15.1667C32.6667 14.5227 33.1893 14 33.8333 14ZM5.83333 23.3333H8.16667C8.81067 23.3333 9.33333 23.856 9.33333 24.5V26.8333C9.33333 27.4773 8.81067 28 8.16667 28H5.83333C5.18933 28 4.66667 27.4773 4.66667 26.8333V24.5C4.66667 23.856 5.18933 23.3333 5.83333 23.3333ZM24.5 23.3333H26.8333C27.4773 23.3333 28 23.856 28 24.5V26.8333C28 27.4773 27.4773 28 26.8333 28H24.5C23.856 28 23.3333 27.4773 23.3333 26.8333V24.5C23.3333 23.856 23.856 23.3333 24.5 23.3333ZM33.8333 23.3333H36.1667C36.8107 23.3333 37.3333 23.856 37.3333 24.5V26.8333C37.3333 27.4773 36.8107 28 36.1667 28H33.8333C33.1893 28 32.6667 27.4773 32.6667 26.8333V24.5C32.6667 23.856 33.1893 23.3333 33.8333 23.3333ZM24.5 32.6667H26.8333C27.4773 32.6667 28 33.1893 28 33.8333V36.1667C28 36.8107 27.4773 37.3333 26.8333 37.3333H24.5C23.856 37.3333 23.3333 36.8107 23.3333 36.1667V33.8333C23.3333 33.1893 23.856 32.6667 24.5 32.6667ZM33.8333 32.6667H36.1667C36.8107 32.6667 37.3333 33.1893 37.3333 33.8333V36.1667C37.3333 36.8107 36.8107 37.3333 36.1667 37.3333H33.8333C33.1893 37.3333 32.6667 36.8107 32.6667 36.1667V33.8333C32.6667 33.1893 33.1893 32.6667 33.8333 32.6667Z" fill="#1006AC"/>
</svg>
