<svg width="117" height="111" viewBox="0 0 117 111" fill="none" xmlns="http://www.w3.org/2000/svg">
<path d="M55.6094 0.5625C25.3815 0.5625 0.78125 25.1554 0.78125 55.3906C0.78125 85.6259 25.3815 110.219 55.6094 110.219C85.8372 110.219 110.438 85.6259 110.438 55.3906C110.438 46.6096 108.296 37.9393 104.286 30.1921L115.555 18.9149C116.294 18.1763 116.294 16.9799 115.555 16.2414L107.993 8.67889C107.254 7.94037 106.058 7.94037 105.32 8.67889L95.7408 18.2576C95.6522 18.0212 95.5193 17.7997 95.342 17.6077C84.8845 6.61841 70.7713 0.5625 55.6094 0.5625ZM55.6094 4.34375C69.73 4.34375 82.8683 9.9787 92.5947 20.2147C92.8089 20.4362 93.06 20.5765 93.3259 20.6725L87.7205 26.278C87.6318 26.0564 87.5137 25.8422 87.3364 25.6502C87.0189 25.3105 86.6939 24.9782 86.3616 24.6458C85.1135 23.3977 83.7841 22.2234 82.4031 21.1378C81.5759 20.4953 80.3869 20.6356 79.7444 21.4554C79.1019 22.2825 79.2422 23.4642 80.0693 24.1067C81.3322 25.0963 82.5434 26.1819 83.6807 27.3193C83.9835 27.6221 84.2863 27.9323 84.5743 28.2424C84.7811 28.4566 85.0322 28.6043 85.2981 28.7077L55.6094 58.389L36.1492 38.9289C35.4107 38.1904 34.2143 38.1904 33.4758 38.9289L25.9133 46.4914C25.1747 47.2299 25.1747 48.4263 25.9133 49.1649L54.2726 77.5242C54.6419 77.8935 55.1219 78.0781 55.6094 78.0781C56.0968 78.0781 56.5768 77.8935 56.9461 77.5242L92.8384 41.6319C92.964 41.9716 93.0822 42.3113 93.2003 42.6584C93.3923 43.2197 93.5696 43.7884 93.7321 44.3644C93.7985 44.6082 93.8871 44.8519 93.9536 45.0956C94.1752 45.9523 94.3746 46.8163 94.5444 47.6804C94.574 47.8281 94.5961 47.9758 94.6257 48.1235C96.1766 56.6018 94.8989 65.3976 91.0955 73.0857C90.9035 73.4697 90.7115 73.8611 90.5047 74.2452C90.1945 74.8286 89.8622 75.412 89.5225 75.9807C89.2049 76.5051 88.8726 77.0073 88.5328 77.5095C88.2374 77.9452 87.9568 78.3957 87.6392 78.824C86.9893 79.725 86.3025 80.5817 85.5787 81.4163C85.3203 81.7117 85.0396 81.9923 84.7737 82.2803C73.5186 94.466 55.314 98.7642 39.3618 91.6153C34.5983 89.481 30.4921 86.4973 27.0728 82.9524C26.6001 82.465 26.157 81.9554 25.7139 81.4458C25.2634 80.9288 24.8129 80.4119 24.3919 79.8801C24.067 79.4666 23.7715 79.0382 23.4688 78.6172C22.9813 77.9526 22.5087 77.2879 22.0729 76.5937C21.8735 76.2835 21.6963 75.9586 21.5117 75.641C21.0316 74.836 20.5663 74.0236 20.1454 73.1817C20.0198 72.9232 19.9091 72.6573 19.7835 72.3989C19.3625 71.5126 18.9564 70.6116 18.6019 69.6959C18.4837 69.3931 18.3877 69.0755 18.2769 68.7727C17.9741 67.9086 17.6713 67.0372 17.4202 66.1509C17.2873 65.6783 17.1913 65.1909 17.0731 64.7108C16.8959 63.9944 16.726 63.2855 16.5857 62.5617C16.4601 61.8453 16.3715 61.129 16.2829 60.4126C16.2164 59.9104 16.1352 59.4082 16.0909 58.906C16.0096 58.005 15.9801 57.0966 15.9653 56.1882C15.9506 55.8485 15.9358 55.5162 15.9358 55.1838C15.9432 54.2016 16.0023 53.2267 16.0761 52.2519C16.0983 51.9565 16.1057 51.6685 16.1352 51.373C16.2312 50.4499 16.3715 49.5193 16.534 48.5962C16.5931 48.2343 16.6522 47.8651 16.726 47.5032C16.8811 46.6982 17.0953 45.9153 17.3021 45.1177C17.4424 44.6155 17.5679 44.1133 17.723 43.6111C17.9224 42.9539 18.1588 42.3113 18.3951 41.6688C18.6314 41.0411 18.8677 40.4059 19.1336 39.7856C19.4142 39.1209 19.7244 38.471 20.042 37.8211C20.2488 37.4001 20.4556 36.9644 20.6771 36.5508C21.0981 35.7606 21.5634 34.9926 22.0508 34.2319C22.2133 33.966 22.361 33.6927 22.5308 33.4343C23.2029 32.4225 23.9266 31.4402 24.7021 30.4875C24.8867 30.2512 25.0935 30.037 25.2855 29.8081C25.8985 29.0844 26.5336 28.3754 27.1983 27.6812C27.634 27.2454 28.0698 26.8097 28.5203 26.3887C28.7123 26.2115 28.9043 26.0195 29.1037 25.8422C29.7905 25.2292 30.4995 24.6384 31.2233 24.0698C31.467 23.8777 31.7255 23.7005 31.9766 23.5159C32.4714 23.1466 32.981 22.7847 33.4905 22.445C33.8376 22.2087 34.1848 21.9797 34.5392 21.7656C34.975 21.4923 35.4181 21.2338 35.8612 20.9753C36.6367 20.5322 37.4269 20.1113 38.2319 19.7272C38.5273 19.5795 38.8153 19.4244 39.1107 19.2915C39.672 19.033 40.2333 18.8041 40.8019 18.5751C41.0383 18.4791 41.2746 18.3905 41.5183 18.2945C42.1313 18.0656 42.7516 17.8292 43.3794 17.6298C43.3942 17.6224 43.4016 17.6224 43.4163 17.6224C44.8712 17.1572 46.3483 16.7657 47.8475 16.463L47.9066 16.4556C48.6082 16.3152 49.3171 16.1971 50.0261 16.1011C50.1738 16.0789 50.3215 16.0568 50.4692 16.042C52.4633 15.7761 54.4868 15.6727 56.5104 15.717C56.9166 15.7244 57.3154 15.7318 57.7216 15.754C58.2164 15.7835 58.7112 15.813 59.2134 15.8574C59.8854 15.9164 60.5649 16.0051 61.2517 16.1011C61.4733 16.1306 61.7022 16.1528 61.9238 16.1897C62.9577 16.3522 63.9252 15.6506 64.0876 14.624V14.6166C64.2575 13.5827 63.5559 12.6152 62.522 12.4454C62.2856 12.4084 62.0493 12.4011 61.813 12.3641C61.0597 12.2534 60.299 12.1647 59.5383 12.0909C59.014 12.0466 58.497 12.017 57.9727 11.9875C57.4852 11.9579 57.0052 11.9432 56.5251 11.9358C54.3908 11.8915 52.2786 12.0096 50.196 12.2681C49.9153 12.3051 49.6421 12.342 49.3688 12.3789C48.6746 12.4823 47.9878 12.5931 47.301 12.7334C47.0868 12.7703 46.88 12.822 46.6658 12.8663C45.3956 13.1396 44.1327 13.4572 42.8994 13.8412C42.6261 13.9224 42.3602 13.9963 42.087 14.0849C41.5183 14.2769 40.957 14.4837 40.3884 14.6905C39.9674 14.853 39.5464 15.0154 39.1329 15.1853C38.6454 15.3847 38.1506 15.5841 37.6706 15.8057C36.8287 16.1897 35.9868 16.5959 35.167 17.0316C34.8937 17.1793 34.6279 17.3418 34.3546 17.4895C33.6899 17.8661 33.0327 18.2502 32.3901 18.6564C32.1095 18.8336 31.8289 19.0182 31.5482 19.2029C30.8392 19.6755 30.145 20.1703 29.4656 20.6799C29.3105 20.7981 29.148 20.9089 28.9929 21.027C28.1436 21.6843 27.3165 22.3785 26.5115 23.1023C26.3785 23.2205 26.2604 23.3386 26.1274 23.4568C25.7065 23.8482 25.2781 24.2396 24.8646 24.6458C24.7169 24.7935 24.5913 24.956 24.4436 25.1111C23.7789 25.7979 23.1364 26.5217 22.5087 27.2602C22.2502 27.5556 21.9769 27.851 21.7332 28.1538C20.9135 29.173 20.1306 30.2291 19.3995 31.3221C19.1853 31.6544 19.0007 31.9868 18.8013 32.3191C18.2991 33.1167 17.8116 33.9143 17.3611 34.7488C17.11 35.2215 16.8811 35.7015 16.6448 36.1816C16.4158 36.6542 16.1573 37.1121 15.9358 37.5995C15.7659 37.9836 15.6182 38.3676 15.4631 38.7516C15.3967 38.8994 15.3302 39.0471 15.2711 39.2021C14.7763 40.4355 14.3406 41.6836 13.9639 42.9391C13.9492 42.976 13.9418 43.0129 13.927 43.0499C12.3096 48.515 11.8222 54.0982 12.3466 59.5411C12.3539 59.5559 12.3539 59.5707 12.3613 59.5854C12.4869 60.8926 12.6715 62.1851 12.9152 63.4627C12.9448 63.64 12.9891 63.8172 13.026 63.9944C13.2476 65.1244 13.5208 66.2322 13.8384 67.34C13.927 67.6649 14.0304 67.9825 14.1264 68.3C14.4292 69.2749 14.7615 70.235 15.1308 71.1803C15.2859 71.5865 15.4484 71.9853 15.6256 72.3841C15.9949 73.2703 16.4011 74.1418 16.8294 74.9985C17.0362 75.4047 17.243 75.8035 17.4645 76.1949C17.9372 77.0811 18.4542 77.9378 18.9859 78.7871C19.1927 79.1121 19.3995 79.4296 19.6136 79.7398C20.2488 80.6851 20.9208 81.5935 21.6298 82.4871C21.7849 82.6791 21.9326 82.8785 22.0951 83.0706C22.9222 84.075 23.8011 85.0498 24.7242 85.9803C24.7759 86.032 24.8203 86.0911 24.8646 86.1428C24.8793 86.1502 24.8941 86.1502 24.9015 86.1576C28.535 89.7911 32.8628 92.8412 37.8257 95.0642C43.5862 97.649 49.6125 98.875 55.5503 98.875C67.0344 98.875 78.1713 94.2961 86.3468 86.1502C86.3542 86.1428 86.3616 86.1428 86.3616 86.1354C86.5167 85.9877 86.6422 85.8253 86.7899 85.6702C87.3955 85.0572 87.9937 84.4221 88.5624 83.7574C88.6953 83.6097 88.8061 83.4472 88.9316 83.2995C89.5225 82.5979 90.0911 81.8815 90.6376 81.143C90.6967 81.0544 90.7558 80.9731 90.8149 80.8845C92.5283 78.5212 94.0496 75.9586 95.2903 73.1817C98.9387 65.0505 99.9504 56.0553 98.3478 47.4367C98.3183 47.2668 98.2888 47.1044 98.2592 46.9419C98.0672 45.9966 97.8604 45.0513 97.6093 44.1133C97.5428 43.8475 97.4468 43.589 97.373 43.3157C97.1884 42.688 96.9963 42.0529 96.7896 41.4251C96.6492 41.0263 96.5089 40.6275 96.3612 40.2287C96.1692 39.7191 95.9624 39.2169 95.7556 38.7147L101.487 32.9911C104.862 39.9333 106.656 47.614 106.656 55.3906C106.656 83.5358 83.7546 106.438 55.6094 106.438C27.4642 106.438 4.5625 83.5358 4.5625 55.3906C4.5625 27.2454 27.4642 4.34375 55.6094 4.34375ZM106.656 12.6891L111.545 17.5781L55.6094 73.514L29.9235 47.8281L34.8125 42.9391L54.2726 62.3992C55.0112 63.1378 56.2076 63.1378 56.9461 62.3992L106.656 12.6891ZM70.0845 14.528C69.3533 14.5576 68.6739 15.0228 68.4006 15.754C68.0314 16.7362 68.5262 17.8218 69.5084 18.1911C70.8599 18.6933 72.1893 19.2767 73.4817 19.9193C73.7549 20.0596 74.043 20.126 74.331 20.126C75.0178 20.126 75.6825 19.7494 76.0222 19.0847C76.4875 18.1542 76.1108 17.0168 75.1803 16.5442C73.7771 15.8352 72.3074 15.2001 70.8304 14.6462C70.5867 14.5576 70.3356 14.5206 70.0845 14.528Z" fill="#413FFF"/>
</svg>
