<svg width="11" height="15" viewBox="0 0 11 15" fill="none" xmlns="http://www.w3.org/2000/svg">
<path d="M5.4987 14.1663C5.34314 14.1663 5.20981 14.1219 5.0987 14.033C4.98759 13.9441 4.90425 13.8275 4.8487 13.683C4.63759 13.0608 4.37092 12.4775 4.0487 11.933C3.73759 11.3886 3.2987 10.7497 2.73203 10.0163C2.16536 9.28301 1.70425 8.58301 1.3487 7.91634C1.00425 7.24967 0.832031 6.44412 0.832031 5.49967C0.832031 4.19967 1.28203 3.09967 2.18203 2.19967C3.09314 1.28856 4.1987 0.833008 5.4987 0.833008C6.7987 0.833008 7.8987 1.28856 8.7987 2.19967C9.70981 3.09967 10.1654 4.19967 10.1654 5.49967C10.1654 6.51079 9.97092 7.35523 9.58203 8.03301C9.20425 8.69967 8.76537 9.36078 8.26537 10.0163C7.66536 10.8163 7.20981 11.483 6.8987 12.0163C6.5987 12.5386 6.3487 13.0941 6.1487 13.683C6.09314 13.8386 6.00425 13.9608 5.88203 14.0497C5.77092 14.1275 5.64314 14.1663 5.4987 14.1663ZM5.4987 7.16634C5.96537 7.16634 6.35981 7.00523 6.68203 6.68301C7.00425 6.36079 7.16536 5.96634 7.16536 5.49967C7.16536 5.03301 7.00425 4.63856 6.68203 4.31634C6.35981 3.99412 5.96537 3.83301 5.4987 3.83301C5.03203 3.83301 4.63759 3.99412 4.31536 4.31634C3.99314 4.63856 3.83203 5.03301 3.83203 5.49967C3.83203 5.96634 3.99314 6.36079 4.31536 6.68301C4.63759 7.00523 5.03203 7.16634 5.4987 7.16634Z" fill="#1006AC"/>
</svg>
