<svg width="20" height="20" viewBox="0 0 20 20" fill="none" xmlns="http://www.w3.org/2000/svg">
<path d="M7.00228 0.00975606C5.92373 0.0645061 4.89841 0.686975 4.39291 1.67772L3.47494 3.4746L1.67806 4.39257C0.324061 5.08357 -0.317282 6.63507 0.150718 8.08007L0.771811 9.99999L0.150718 11.9219C-0.318282 13.3669 0.322108 14.9174 1.67611 15.6094L3.47298 16.5254L4.39291 18.3223C5.06791 19.6443 6.67045 20.3096 8.07845 19.8516L10.0003 19.2285L11.9202 19.8496C12.2272 19.9496 12.5455 20 12.8675 20C14.0295 20 15.0787 19.3573 15.6077 18.3223L16.5257 16.5254L18.3245 15.6074C19.6775 14.9154 20.3189 13.3639 19.8499 11.9199L19.2288 9.99999L19.8499 8.08007C20.3189 6.63407 19.6785 5.08357 18.3245 4.39257L16.5277 3.4746L15.6077 1.67772C14.9347 0.356725 13.3292 -0.306619 11.9222 0.150381L10.0003 0.771475L8.08041 0.152334C7.72616 0.0370841 7.3618 -0.00849394 7.00228 0.00975606ZM7.08236 2.00194C7.20866 1.9958 7.33867 2.01097 7.46517 2.05272L9.69173 2.77343C9.89273 2.83843 10.1099 2.83843 10.3109 2.77343L12.5394 2.05077C13.0334 1.88877 13.5915 2.12393 13.8265 2.58593L14.8929 4.67187C14.9889 4.85887 15.1395 5.01141 15.3265 5.10741L17.4144 6.17382C17.8874 6.41582 18.1116 6.95883 17.9476 7.46483L17.2269 9.6914C17.1619 9.8914 17.1619 10.1066 17.2269 10.3066L17.3265 10.6152L17.9476 12.5351C18.1116 13.0411 17.8884 13.5842 17.4144 13.8262L15.3265 14.8926C15.1395 14.9886 14.9889 15.1392 14.8929 15.3262L13.8265 17.4121C13.5915 17.8731 13.0414 18.1123 12.5374 17.9473L10.3089 17.2266C10.2089 17.1936 10.1043 17.1777 10.0003 17.1777C9.89633 17.1777 9.79173 17.1926 9.69173 17.2266L7.46322 17.9492C6.96822 18.1112 6.40816 17.8751 6.17416 17.4141L5.1097 15.3281C5.0137 15.1411 4.86116 14.9886 4.67416 14.8926L2.58822 13.8262C2.11522 13.5842 1.88906 13.0411 2.05306 12.5351L2.77376 10.3086C2.83876 10.1086 2.83876 9.89335 2.77376 9.69335L2.05306 7.46483C1.88906 6.95883 2.11422 6.41582 2.58822 6.17382L4.67416 5.10741C4.86016 5.01141 5.01275 4.86082 5.10775 4.67382L6.17416 2.58788C6.35041 2.24138 6.70347 2.02037 7.08236 2.00194ZM14.2933 6.29296L9.00033 11.5859L6.70736 9.29296L5.2933 10.707L9.00033 14.4141L15.7074 7.70702L14.2933 6.29296Z" fill="#379AE6"/>
</svg>
