<svg width="13" height="13" viewBox="0 0 13 13" fill="none" xmlns="http://www.w3.org/2000/svg">
<path d="M11.8487 8.82533C11.4287 8.81533 10.9 8.79067 10.566 8.732C10.2047 8.668 9.77 8.544 9.464 8.44867C9.224 8.374 8.96267 8.44 8.78467 8.61733L7.30667 10.0867C6.28533 9.54867 5.46733 8.922 4.77467 8.22533C4.078 7.53267 3.45133 6.71467 2.91333 5.69333L4.38267 4.21467C4.56 4.03667 4.626 3.77533 4.55133 3.53533C4.45667 3.23 4.332 2.79533 4.26867 2.434C4.20933 2.1 4.18533 1.57133 4.17467 1.15133C4.166 0.788 3.87 0.5 3.50667 0.5H1.16667C0.874667 0.5 0.5 0.718667 0.5 1.16667C0.5 4.19267 1.72667 7.08267 3.81067 9.18933C5.91733 11.2733 8.80733 12.5 11.8333 12.5C12.2813 12.5 12.5 12.1253 12.5 11.8333V9.49333C12.5 9.13 12.212 8.834 11.8487 8.82533Z" fill="white"/>
</svg>
