<svg width="15" height="14" viewBox="0 0 15 14" fill="none" xmlns="http://www.w3.org/2000/svg">
<path d="M3.82857 0C3.56685 0 3.30904 0.09375 3.09419 0.265625L3.06294 0.28125L3.04732 0.296875L1.48482 1.90625L1.50044 1.92188C1.01802 2.36719 0.869583 3.0332 1.07857 3.60938C1.08052 3.61328 1.07661 3.62109 1.07857 3.625C1.5024 4.83789 2.58638 7.17969 4.70357 9.29688C6.82857 11.4219 9.20161 12.4629 10.3754 12.9219H10.3911C10.9985 13.125 11.6567 12.9805 12.1254 12.5781L13.7036 11C14.1176 10.5859 14.1176 9.86719 13.7036 9.45312L11.6723 7.42188L11.6567 7.39062C11.2426 6.97656 10.5083 6.97656 10.0942 7.39062L9.09419 8.39062C8.73286 8.2168 7.87154 7.77148 7.04732 6.98438C6.22896 6.20312 5.81099 5.30469 5.65669 4.95312L6.65669 3.95312C7.07661 3.5332 7.08443 2.83398 6.64107 2.42188L6.65669 2.40625L6.60982 2.35938L4.60982 0.296875L4.59419 0.28125L4.56294 0.265625C4.3481 0.09375 4.09029 0 3.82857 0ZM3.82857 1C3.86568 1 3.90279 1.01758 3.93794 1.04688L5.93794 3.09375L5.98482 3.14062C5.98091 3.13672 6.01411 3.18945 5.95357 3.25L4.70357 4.5L4.46919 4.71875L4.57857 5.03125C4.57857 5.03125 5.15279 6.56836 6.35982 7.71875L6.46919 7.8125C7.6313 8.87305 9.00044 9.45312 9.00044 9.45312L9.31294 9.59375L10.7973 8.10938C10.8833 8.02344 10.8676 8.02344 10.9536 8.10938L13.0004 10.1562C13.0864 10.2422 13.0864 10.2109 13.0004 10.2969L11.4692 11.8281C11.2387 12.0254 10.9946 12.0664 10.7036 11.9688C9.57076 11.5234 7.36958 10.5566 5.40669 8.59375C3.42818 6.61523 2.39497 4.37109 2.01607 3.28125C1.9399 3.07812 1.99458 2.77734 2.17232 2.625L2.20357 2.59375L3.71919 1.04688C3.75435 1.01758 3.79146 1 3.82857 1Z" fill="white"/>
</svg>
