<svg width="64" height="55" viewBox="0 0 64 55" fill="none" xmlns="http://www.w3.org/2000/svg">
<path d="M0.833984 54.4993L32.0007 0.666016L63.1673 54.4993H0.833984ZM10.609 48.8327H53.3923L32.0007 11.9993L10.609 48.8327ZM32.0007 45.9993C32.8034 45.9993 33.4763 45.7278 34.0194 45.1848C34.5625 44.6417 34.834 43.9688 34.834 43.166C34.834 42.3632 34.5625 41.6903 34.0194 41.1473C33.4763 40.6042 32.8034 40.3327 32.0007 40.3327C31.1979 40.3327 30.525 40.6042 29.9819 41.1473C29.4388 41.6903 29.1673 42.3632 29.1673 43.166C29.1673 43.9688 29.4388 44.6417 29.9819 45.1848C30.525 45.7278 31.1979 45.9993 32.0007 45.9993ZM29.1673 37.4993H34.834V23.3327H29.1673V37.4993Z" fill="#FF282D"/>
</svg>
