<svg width="24" height="25" viewBox="0 0 24 25" fill="none" xmlns="http://www.w3.org/2000/svg">
<path d="M17.1211 12.502V11.5645H21.9258L19.1156 8.04883H14.2383V17.0254H15.6937C15.8531 17.9652 16.6734 18.6848 17.6578 18.6848C18.6422 18.6848 19.4625 17.9676 19.6219 17.0254H22.207V12.502H17.1211ZM17.6578 17.7473C17.0766 17.7473 16.6031 17.2738 16.6031 16.6926V16.6902V16.6809C16.6102 16.1066 17.0836 15.6379 17.6578 15.6379C18.232 15.6379 18.7055 16.1066 18.7125 16.6809V16.6926C18.7125 17.2738 18.2391 17.7473 17.6578 17.7473Z" fill="#2718FF"/>
<path d="M12.4523 6.31445H2.71172C2.20547 6.31445 1.79297 6.72695 1.79297 7.2332V16.109C1.79297 16.6152 2.20547 17.0277 2.71172 17.0277H4.82344C4.98281 17.9676 5.80313 18.6871 6.7875 18.6871C7.77188 18.6871 8.59219 17.9699 8.75156 17.0277H13.3008V7.16289C13.3008 6.69648 12.9211 6.31445 12.4523 6.31445ZM6.7875 17.7473C6.20625 17.7473 5.73281 17.2738 5.73281 16.6926V16.6902V16.6809C5.73984 16.1066 6.21328 15.6379 6.7875 15.6379C7.36172 15.6379 7.83516 16.1066 7.84219 16.6809V16.6926C7.84219 17.2738 7.36875 17.7473 6.7875 17.7473Z" fill="#2718FF"/>
</svg>
