<svg width="53" height="40" viewBox="0 0 53 40" fill="none" xmlns="http://www.w3.org/2000/svg">
<path d="M1.0625 0.75C0.61499 0.75 0.25 1.11182 0.25 1.5625C0.25 2.01318 0.61499 2.375 1.0625 2.375H31.9375C32.385 2.375 32.75 2.73999 32.75 3.1875V25.125H3.5V17.8125C3.5 17.3618 3.13501 17 2.6875 17C2.23999 17 1.875 17.3618 1.875 17.8125V25.125C1.875 25.1758 1.89404 25.2202 1.90356 25.2646C0.945069 25.5947 0.25 26.4929 0.25 27.5625V32.4375C0.25 33.78 1.34497 34.875 2.6875 34.875H6.81348C7.21021 37.6267 9.57788 39.75 12.4375 39.75C15.2971 39.75 17.6648 37.6267 18.0615 34.875H36.0635C36.4602 37.6267 38.8279 39.75 41.6875 39.75C44.5471 39.75 46.9148 37.6267 47.3115 34.875H49.8125C51.155 34.875 52.25 33.78 52.25 32.4375V27.5625C52.25 26.4929 51.5549 25.5947 50.5964 25.2646C50.606 25.2202 50.625 25.1758 50.625 25.125V22.0178C50.625 21.2371 50.4028 20.4785 49.9775 19.8184L44.1409 10.7412C43.3918 9.57324 42.116 8.875 40.7258 8.875H39.25V7.25C39.25 6.79932 38.885 6.4375 38.4375 6.4375C37.99 6.4375 37.625 6.79932 37.625 7.25V8.875H34.375V3.1875C34.375 1.84497 33.28 0.75 31.9375 0.75H1.0625ZM1.0625 4C0.61499 4 0.25 4.36182 0.25 4.8125C0.25 5.26318 0.61499 5.625 1.0625 5.625H4.3125C4.76001 5.625 5.125 5.26318 5.125 4.8125C5.125 4.36182 4.76001 4 4.3125 4H1.0625ZM7.5625 4C7.11499 4 6.75 4.36182 6.75 4.8125C6.75 5.26318 7.11499 5.625 7.5625 5.625H25.4375C25.885 5.625 26.25 5.26318 26.25 4.8125C26.25 4.36182 25.885 4 25.4375 4H7.5625ZM1.0625 7.25C0.61499 7.25 0.25 7.61182 0.25 8.0625C0.25 8.51318 0.61499 8.875 1.0625 8.875H18.9375C19.385 8.875 19.75 8.51318 19.75 8.0625C19.75 7.61182 19.385 7.25 18.9375 7.25H1.0625ZM1.0625 10.5C0.61499 10.5 0.25 10.8618 0.25 11.3125C0.25 11.7632 0.61499 12.125 1.0625 12.125H12.4375C12.885 12.125 13.25 11.7632 13.25 11.3125C13.25 10.8618 12.885 10.5 12.4375 10.5H1.0625ZM34.375 10.5H40.7258C41.5574 10.5 42.3254 10.9189 42.7761 11.6204L48.6128 20.6975C48.8667 21.0942 49 21.5513 49 22.0178V25.125H34.375V10.5ZM37.625 12.125C36.73 12.125 36 12.855 36 13.75V18.625C36 19.52 36.73 20.25 37.625 20.25H43.4712C44.0615 20.25 44.6074 19.9294 44.8931 19.4121C45.1787 18.8979 45.1628 18.2632 44.8486 17.7617L41.8018 12.8867C41.5034 12.4106 40.9861 12.125 40.4243 12.125H37.625ZM1.0625 13.75C0.61499 13.75 0.25 14.1118 0.25 14.5625C0.25 15.0132 0.61499 15.375 1.0625 15.375H5.9375C6.38501 15.375 6.75 15.0132 6.75 14.5625C6.75 14.1118 6.38501 13.75 5.9375 13.75H1.0625ZM37.625 13.75H40.4243L43.4775 18.625H37.625V13.75ZM36.8125 21.875C36.365 21.875 36 22.2368 36 22.6875C36 23.1382 36.365 23.5 36.8125 23.5H38.4375C38.885 23.5 39.25 23.1382 39.25 22.6875C39.25 22.2368 38.885 21.875 38.4375 21.875H36.8125ZM2.6875 26.75H49.8125C50.26 26.75 50.625 27.115 50.625 27.5625V32.4375C50.625 32.885 50.26 33.25 49.8125 33.25H47.3115C46.9148 30.4983 44.5471 28.375 41.6875 28.375C38.8279 28.375 36.4602 30.4983 36.0635 33.25H18.0615C17.6648 30.4983 15.2971 28.375 12.4375 28.375C9.57788 28.375 7.21021 30.4983 6.81348 33.25H2.6875C2.23999 33.25 1.875 32.885 1.875 32.4375V31.625C2.32251 31.625 2.6875 31.2632 2.6875 30.8125V29.1875C2.6875 28.7368 2.32251 28.375 1.875 28.375V27.5625C1.875 27.115 2.23999 26.75 2.6875 26.75ZM5.9375 28.375C5.48999 28.375 5.125 28.7368 5.125 29.1875V30.8125C5.125 31.2632 5.48999 31.625 5.9375 31.625C6.38501 31.625 6.75 31.2632 6.75 30.8125V29.1875C6.75 28.7368 6.38501 28.375 5.9375 28.375ZM18.9375 28.375C18.49 28.375 18.125 28.7368 18.125 29.1875V30.8125C18.125 31.2632 18.49 31.625 18.9375 31.625C19.385 31.625 19.75 31.2632 19.75 30.8125V29.1875C19.75 28.7368 19.385 28.375 18.9375 28.375ZM23 28.375C22.5525 28.375 22.1875 28.7368 22.1875 29.1875V30.8125C22.1875 31.2632 22.5525 31.625 23 31.625C23.4475 31.625 23.8125 31.2632 23.8125 30.8125V29.1875C23.8125 28.7368 23.4475 28.375 23 28.375ZM27.0625 28.375C26.615 28.375 26.25 28.7368 26.25 29.1875V30.8125C26.25 31.2632 26.615 31.625 27.0625 31.625C27.51 31.625 27.875 31.2632 27.875 30.8125V29.1875C27.875 28.7368 27.51 28.375 27.0625 28.375ZM31.125 28.375C30.6775 28.375 30.3125 28.7368 30.3125 29.1875V30.8125C30.3125 31.2632 30.6775 31.625 31.125 31.625C31.5725 31.625 31.9375 31.2632 31.9375 30.8125V29.1875C31.9375 28.7368 31.5725 28.375 31.125 28.375ZM35.1875 28.375C34.74 28.375 34.375 28.7368 34.375 29.1875V30.8125C34.375 31.2632 34.74 31.625 35.1875 31.625C35.635 31.625 36 31.2632 36 30.8125V29.1875C36 28.7368 35.635 28.375 35.1875 28.375ZM48.1875 28.375C47.74 28.375 47.375 28.7368 47.375 29.1875V30.8125C47.375 31.2632 47.74 31.625 48.1875 31.625C48.635 31.625 49 31.2632 49 30.8125V29.1875C49 28.7368 48.635 28.375 48.1875 28.375ZM12.4375 30C14.6782 30 16.5 31.8218 16.5 34.0625C16.5 36.3032 14.6782 38.125 12.4375 38.125C10.1968 38.125 8.375 36.3032 8.375 34.0625C8.375 31.8218 10.1968 30 12.4375 30ZM41.6875 30C43.9282 30 45.75 31.8218 45.75 34.0625C45.75 36.3032 43.9282 38.125 41.6875 38.125C39.4468 38.125 37.625 36.3032 37.625 34.0625C37.625 31.8218 39.4468 30 41.6875 30ZM12.4375 32.4375C11.5393 32.4375 10.8125 33.1643 10.8125 34.0625C10.8125 34.9607 11.5393 35.6875 12.4375 35.6875C13.3357 35.6875 14.0625 34.9607 14.0625 34.0625C14.0625 33.1643 13.3357 32.4375 12.4375 32.4375ZM41.6875 32.4375C40.7893 32.4375 40.0625 33.1643 40.0625 34.0625C40.0625 34.9607 40.7893 35.6875 41.6875 35.6875C42.5857 35.6875 43.3125 34.9607 43.3125 34.0625C43.3125 33.1643 42.5857 32.4375 41.6875 32.4375Z" fill="#526277"/>
</svg>
