<svg width="24" height="25" viewBox="0 0 24 25" fill="none" xmlns="http://www.w3.org/2000/svg">
<path d="M8.85 14.75H19.65C19.8975 14.75 20.1 14.4969 20.1 14.1875V5.1875C20.1 4.87812 19.8975 4.625 19.65 4.625H15.6V9.125L14.25 8L12.9 9.125V4.625H8.85C8.6025 4.625 8.4 4.87812 8.4 5.1875V14.1875C8.4 14.4969 8.6025 14.75 8.85 14.75ZM20.55 17H6.6V4.0625C6.6 3.75312 6.3975 3.5 6.15 3.5H3.45C3.2025 3.5 3 3.75312 3 4.0625V5.1875C3 5.49688 3.2025 5.75 3.45 5.75H4.8V18.6875C4.8 18.9969 5.0025 19.25 5.25 19.25H7.58156C7.53094 19.4258 7.5 19.6156 7.5 19.8125C7.5 20.7441 8.10469 21.5 8.85 21.5C9.59531 21.5 10.2 20.7441 10.2 19.8125C10.2 19.6156 10.1662 19.4258 10.1184 19.25H15.6844C15.6337 19.4258 15.6028 19.6156 15.6028 19.8125C15.6028 20.7441 16.2075 21.5 16.9528 21.5C17.6981 21.5 18.3028 20.7441 18.3028 19.8125C18.3028 19.6156 18.2691 19.4258 18.2212 19.25H20.55C20.7975 19.25 21 18.9969 21 18.6875V17.5625C21 17.2531 20.7975 17 20.55 17Z" fill="#2718FF"/>
</svg>
