<svg width="13" height="12" viewBox="0 0 13 12" fill="none" xmlns="http://www.w3.org/2000/svg">
<path d="M1.83333 10.6667H2.78333L9.3 4.15L8.35 3.2L1.83333 9.71667V10.6667ZM0.5 12V9.16667L9.3 0.383333C9.43333 0.261111 9.58056 0.166667 9.74167 0.1C9.90278 0.0333333 10.0722 0 10.25 0C10.4278 0 10.6 0.0333333 10.7667 0.1C10.9333 0.166667 11.0778 0.266667 11.2 0.4L12.1167 1.33333C12.25 1.45556 12.3472 1.6 12.4083 1.76667C12.4694 1.93333 12.5 2.1 12.5 2.26667C12.5 2.44444 12.4694 2.61389 12.4083 2.775C12.3472 2.93611 12.25 3.08333 12.1167 3.21667L3.33333 12H0.5ZM8.81667 3.68333L8.35 3.2L9.3 4.15L8.81667 3.68333Z" fill="#020053"/>
</svg>
