<svg width="48" height="48" viewBox="0 0 48 48" fill="none" xmlns="http://www.w3.org/2000/svg">
<circle cx="24" cy="24" r="20" fill="#BF14E5"/>
<path d="M16.6673 31.3337C16.1632 31.3337 15.7277 31.158 15.3611 30.8066C15.0097 30.4399 14.834 30.0045 14.834 29.5003V18.5003C14.834 17.9962 15.0097 17.5684 15.3611 17.217C15.7277 16.8503 16.1632 16.667 16.6673 16.667H31.334C31.8382 16.667 32.2659 16.8503 32.6173 17.217C32.984 17.5684 33.1673 17.9962 33.1673 18.5003V29.5003C33.1673 30.0045 32.984 30.4399 32.6173 30.8066C32.2659 31.158 31.8382 31.3337 31.334 31.3337H16.6673ZM24.0007 24.917L31.334 20.3337V18.5003L24.0007 23.0837L16.6673 18.5003V20.3337L24.0007 24.917Z" fill="white"/>
</svg>
