<svg width="23" height="24" viewBox="0 0 23 24" fill="none" xmlns="http://www.w3.org/2000/svg">
<path d="M17.498 0C16.118 0 15 1.12 15 2.5C15 3.88 16.118 5 17.498 5C18.881 5 20 3.88 20 2.5C20 1.12 18.881 0 17.498 0ZM8 5C7.7348 5.00005 7.48048 5.10543 7.29297 5.29297L4.29297 8.29297C4.10542 8.48047 4.00004 8.7348 4 9C4 9.26522 4.10536 9.51957 4.29289 9.70711C4.48043 9.89464 4.73478 10 5 10C5.2652 9.99996 5.51953 9.89458 5.70703 9.70703C5.71031 9.7038 5.71356 9.70054 5.7168 9.69727L8.21289 7.20117L10.5332 7.58789L8.39258 11.1543L8.39453 11.1621C8.14753 11.5501 8 12.007 8 12.5C8 13.165 8.2645 13.7649 8.6875 14.2129V14.2227L12.4258 18.0859L13 23C13 23.2652 13.1054 23.5196 13.2929 23.7071C13.4804 23.8946 13.7348 24 14 24C14.2652 24 14.5196 23.8946 14.7071 23.7071C14.8946 23.5196 15 23.2652 15 23V17C14.9999 16.7945 14.9365 16.594 14.8184 16.4258L12.7871 13.5234L15.6406 8.79297L15.6348 8.7832C15.8618 8.4062 16 7.971 16 7.5C16 6.12 14.882 5.001 13.5 5H13.498H8ZM17.293 8.875L16 11L16.2168 11.1094L17.4922 11.8613C17.646 11.9521 17.8214 12 18 12H22C22.2652 12 22.5196 11.8946 22.7071 11.7071C22.8946 11.5196 23 11.2652 23 11C23 10.7348 22.8946 10.4804 22.7071 10.2929C22.5196 10.1054 22.2652 10 22 10H18.6543L17.293 8.875ZM6.87109 14.6094L5.36914 16.4023L1 17C0.734784 17 0.48043 17.1054 0.292893 17.2929C0.105357 17.4804 0 17.7348 0 18C0 18.2652 0.105357 18.5196 0.292893 18.7071C0.48043 18.8946 0.734784 19 1 19H6C6.13472 18.9998 6.268 18.9723 6.39185 18.9193C6.5157 18.8662 6.62755 18.7887 6.7207 18.6914L6.78906 18.6191L8.89844 16.6992L6.87109 14.6094Z" fill="#020053"/>
</svg>
