<svg width="18" height="18" viewBox="0 0 18 18" fill="none" xmlns="http://www.w3.org/2000/svg">
<path d="M9 0C6.52441 0 4.5 2.02441 4.5 4.5C4.5 8.39941 9 15.4453 9 15.4453C9 15.4453 13.5 8.32617 13.5 4.5C13.5 2.02441 11.4756 0 9 0ZM9 3C9.82617 3 10.5 3.67383 10.5 4.5C10.5 5.32617 9.82617 6 9 6C8.17383 6 7.5 5.32617 7.5 4.5C7.5 3.67383 8.17383 3 9 3ZM4.71094 12.0469C3.43652 12.2783 2.34668 12.6152 1.54688 13.0312C1.14551 13.2393 0.820312 13.4531 0.5625 13.7344C0.304688 14.0156 0.117188 14.3701 0.117188 14.7656C0.117188 15.3633 0.506836 15.8467 1.00781 16.1953C1.50879 16.5439 2.16211 16.8252 2.95312 17.0625C4.53809 17.5342 6.66504 17.8125 9 17.8125C11.335 17.8125 13.4619 17.5342 15.0469 17.0625C15.8379 16.8252 16.4912 16.5439 16.9922 16.1953C17.4932 15.8467 17.8828 15.3633 17.8828 14.7656C17.8828 14.3643 17.6982 14.001 17.4375 13.7109C17.1768 13.4209 16.8545 13.1865 16.4531 12.9844C15.6504 12.5771 14.5576 12.2783 13.2891 12.0469L13.1016 13.1484C14.3057 13.3682 15.2988 13.667 15.9375 13.9922C16.2568 14.1533 16.4912 14.3203 16.6172 14.4609C16.7432 14.6016 16.7578 14.6807 16.7578 14.7656C16.7578 14.8418 16.6816 15.041 16.3359 15.2812C15.9902 15.5215 15.4365 15.7705 14.7188 15.9844C13.2832 16.4121 11.2412 16.6875 9 16.6875C6.75879 16.6875 4.7168 16.4121 3.28125 15.9844C2.56348 15.7705 2.00977 15.5215 1.66406 15.2812C1.31836 15.041 1.24219 14.8418 1.24219 14.7656C1.24219 14.7129 1.25391 14.6484 1.38281 14.5078C1.51172 14.3672 1.74023 14.1826 2.0625 14.0156C2.70703 13.6816 3.7002 13.3652 4.89844 13.1484L4.71094 12.0469Z" fill="#767CFF"/>
</svg>
