<svg width="18" height="20" viewBox="0 0 18 20" fill="none" xmlns="http://www.w3.org/2000/svg">
<path d="M9 0C4.31463 0 0.5 3.81463 0.5 8.5C0.5 10.6034 1.27165 12.5324 2.53906 14.0156L2.54297 14.0195L2.5459 14.0234C2.5459 14.0234 6.16186 18.1495 7.44922 19.3779C8.31128 20.1998 9.68774 20.1998 10.5498 19.3779C12.0172 17.9783 15.4551 14.0215 15.4551 14.0215L15.457 14.0186L15.46 14.0156C16.7285 12.5324 17.5 10.6034 17.5 8.5C17.5 3.81463 13.6854 0 9 0ZM9 1.5C12.8746 1.5 16 4.62537 16 8.5C16 10.2376 15.3668 11.8163 14.3193 13.041C14.3125 13.0488 10.795 17.0718 9.51465 18.293C9.21771 18.5761 8.78131 18.5761 8.48438 18.293C7.41429 17.2719 3.69055 13.0533 3.67969 13.041L3.67871 13.04C2.63266 11.8154 2 10.2371 2 8.5C2 4.62537 5.12537 1.5 9 1.5ZM9 5.5C8.0625 5.5 7.26441 5.87857 6.75195 6.45508C6.2395 7.03159 6 7.77083 6 8.5C6 9.22917 6.2395 9.96841 6.75195 10.5449C7.26441 11.1214 8.0625 11.5 9 11.5C9.9375 11.5 10.7356 11.1214 11.248 10.5449C11.7605 9.96841 12 9.22917 12 8.5C12 7.77083 11.7605 7.03159 11.248 6.45508C10.7356 5.87857 9.9375 5.5 9 5.5ZM9 7C9.5625 7 9.88941 7.18393 10.127 7.45117C10.3645 7.71841 10.5 8.10417 10.5 8.5C10.5 8.89583 10.3645 9.28159 10.127 9.54883C9.88941 9.81607 9.5625 10 9 10C8.4375 10 8.11059 9.81607 7.87305 9.54883C7.6355 9.28159 7.5 8.89583 7.5 8.5C7.5 8.10417 7.6355 7.71841 7.87305 7.45117C8.11059 7.18393 8.4375 7 9 7Z" fill="#020053"/>
</svg>
