<svg width="10" height="15" viewBox="0 0 10 15" fill="none" xmlns="http://www.w3.org/2000/svg">
<path d="M4.9987 14.1663C4.84314 14.1663 4.70981 14.1219 4.5987 14.033C4.48759 13.9441 4.40425 13.8275 4.3487 13.683C4.13759 13.0608 3.87092 12.4775 3.5487 11.933C3.23759 11.3886 2.7987 10.7497 2.23203 10.0163C1.66536 9.28301 1.20425 8.58301 0.848698 7.91634C0.504254 7.24967 0.332031 6.44412 0.332031 5.49967C0.332031 4.19967 0.782031 3.09967 1.68203 2.19967C2.59314 1.28856 3.6987 0.833008 4.9987 0.833008C6.2987 0.833008 7.3987 1.28856 8.2987 2.19967C9.20981 3.09967 9.66537 4.19967 9.66537 5.49967C9.66537 6.51079 9.47092 7.35523 9.08203 8.03301C8.70425 8.69967 8.26537 9.36078 7.76537 10.0163C7.16537 10.8163 6.70981 11.483 6.3987 12.0163C6.0987 12.5386 5.8487 13.0941 5.6487 13.683C5.59314 13.8386 5.50425 13.9608 5.38203 14.0497C5.27092 14.1275 5.14314 14.1663 4.9987 14.1663ZM4.9987 11.783C5.18759 11.4052 5.3987 11.033 5.63203 10.6663C5.87648 10.2997 6.23203 9.81078 6.6987 9.19967C7.17648 8.57745 7.56536 8.00523 7.86536 7.48301C8.17648 6.94967 8.33203 6.28856 8.33203 5.49967C8.33203 4.57745 8.00425 3.79412 7.3487 3.14967C6.70425 2.49412 5.92092 2.16634 4.9987 2.16634C4.07648 2.16634 3.28759 2.49412 2.63203 3.14967C1.98759 3.79412 1.66536 4.57745 1.66536 5.49967C1.66536 6.28856 1.81536 6.94967 2.11536 7.48301C2.42648 8.00523 2.82092 8.57745 3.2987 9.19967C3.76537 9.81078 4.11537 10.2997 4.3487 10.6663C4.59314 11.033 4.80981 11.4052 4.9987 11.783ZM4.9987 7.16634C5.46537 7.16634 5.85981 7.00523 6.18203 6.68301C6.50425 6.36079 6.66536 5.96634 6.66536 5.49967C6.66536 5.03301 6.50425 4.63856 6.18203 4.31634C5.85981 3.99412 5.46537 3.83301 4.9987 3.83301C4.53203 3.83301 4.13759 3.99412 3.81536 4.31634C3.49314 4.63856 3.33203 5.03301 3.33203 5.49967C3.33203 5.96634 3.49314 6.36079 3.81536 6.68301C4.13759 7.00523 4.53203 7.16634 4.9987 7.16634Z" fill="#F6F7F9"/>
</svg>
