<svg width="40" height="40" viewBox="0 0 40 40" fill="none" xmlns="http://www.w3.org/2000/svg">
<g clip-path="url(#clip0_11042_30506)">
<path d="M19.9984 32.0036L8.29741 38.1116L10.4914 25.0966L1.06641 15.8556L14.1224 13.9206L19.9984 2.10156L25.8744 13.9206L38.9304 15.8556L29.5064 25.0976L31.6994 38.1116L19.9984 32.0036Z" fill="#FFEEA3"/>
<path d="M20 3.22452L25.311 13.9095L25.543 14.3775L26.059 14.4545L37.863 16.2035L29.343 24.5575L28.97 24.9225L29.057 25.4375L31.04 37.2035L20.462 31.6815L20 31.4395L19.537 31.6815L8.959 37.2035L10.943 25.4365L11.03 24.9215L10.657 24.5555L2.136 16.2025L13.939 14.4535L14.455 14.3765L14.687 13.9085L20 3.22452ZM20 0.978516L13.793 13.4655L0 15.5085L9.957 25.2695L7.639 39.0205L20 32.5675L32.361 39.0205L30.044 25.2715L40 15.5085L26.207 13.4645L20 0.978516Z" fill="#BA9B48"/>
<path d="M28.971 24.9226L29.344 24.5576L37.864 16.2036L26.06 14.4546L25.544 14.3776L25.311 13.9096L20 3.22461V31.4396L20.463 31.6806L31.041 37.2036L29.058 25.4376L28.971 24.9226Z" fill="white"/>
</g>
<defs>
<clipPath id="clip0_11042_30506">
<rect width="40" height="40" fill="white"/>
</clipPath>
</defs>
</svg>
