<svg width="17" height="18" viewBox="0 0 17 18" fill="none" xmlns="http://www.w3.org/2000/svg">
<path d="M8.50912 0.666992C3.92078 0.666992 0.185586 4.39897 0.183919 8.9873C0.183086 10.454 0.56724 11.8858 1.29557 13.1475L0.166016 17.3337L4.52637 16.3034C5.7422 16.9667 7.1109 17.3149 8.50423 17.3158H8.50749C13.095 17.3158 16.8286 13.5829 16.8311 8.99544C16.8327 6.77128 15.9678 4.6801 14.3962 3.10677C12.8245 1.53427 10.7358 0.667826 8.50912 0.666992ZM8.50749 2.33366C10.2875 2.33449 11.9603 3.02849 13.2178 4.28516C14.4753 5.54349 15.1661 7.21548 15.1644 8.99382C15.1627 12.6638 12.1775 15.6491 8.50586 15.6491C7.39503 15.6483 6.29469 15.3693 5.32552 14.8402L4.764 14.5342L4.14388 14.6807L2.50326 15.068L2.90365 13.5804L3.08431 12.9131L2.73926 12.3141C2.15759 11.3075 1.84975 10.1565 1.85059 8.9873C1.85225 5.31897 4.83832 2.33366 8.50749 2.33366ZM5.56315 5.14616C5.42398 5.14616 5.19897 5.19824 5.00814 5.40658C4.81731 5.61408 4.27897 6.11664 4.27897 7.13997C4.27897 8.16331 5.02441 9.1525 5.12858 9.29167C5.23191 9.43 6.56747 11.5964 8.68164 12.4297C10.4383 13.1222 10.7951 12.9855 11.1768 12.9505C11.5584 12.9164 12.408 12.4484 12.5814 11.9626C12.7547 11.4767 12.7551 11.0588 12.7035 10.973C12.6518 10.8863 12.513 10.8346 12.3047 10.7305C12.0972 10.6263 11.0746 10.1242 10.8838 10.055C10.693 9.98585 10.5534 9.95085 10.415 10.1592C10.2767 10.3675 9.87915 10.8346 9.75749 10.973C9.63582 11.1122 9.51497 11.1309 9.30664 11.0267C9.09831 10.9217 8.42846 10.7015 7.63346 9.99316C7.01513 9.44233 6.5979 8.7627 6.47624 8.55436C6.3554 8.34686 6.46484 8.23289 6.56901 8.12956C6.66234 8.03622 6.77572 7.88664 6.87988 7.76497C6.98322 7.64331 7.01905 7.55663 7.08822 7.41829C7.15738 7.27996 7.12198 7.15788 7.07031 7.05371C7.01865 6.94954 6.61404 5.92241 6.42904 5.51074C6.2732 5.16491 6.10862 5.15688 5.96029 5.15104C5.83945 5.14604 5.70148 5.14616 5.56315 5.14616Z" fill="white"/>
</svg>
