<svg width="20" height="20" viewBox="0 0 20 20" fill="none" xmlns="http://www.w3.org/2000/svg">
<path d="M7.00033 0.00975606C5.92178 0.0645061 4.89645 0.686975 4.39095 1.67772L3.47298 3.4746L1.67611 4.39257C0.322108 5.08357 -0.319236 6.63507 0.148765 8.08007L0.769858 9.99999L0.148765 11.9219C-0.320235 13.3669 0.320155 14.9174 1.67416 15.6094L3.47103 16.5254L4.39095 18.3223C5.06595 19.6443 6.6685 20.3096 8.0765 19.8516L9.99837 19.2285L11.9183 19.8496C12.2253 19.9496 12.5436 20 12.8656 20C14.0276 20 15.0768 19.3573 15.6058 18.3223L16.5238 16.5254L18.3226 15.6074C19.6756 14.9154 20.317 13.3639 19.848 11.9199L19.2269 9.99999L19.848 8.08007C20.317 6.63407 19.6766 5.08357 18.3226 4.39257L16.5257 3.4746L15.6058 1.67772C14.9328 0.356725 13.3272 -0.306619 11.9202 0.150381L9.99837 0.771475L8.07845 0.152334C7.7242 0.0370841 7.35984 -0.00849394 7.00033 0.00975606ZM7.08041 2.00194C7.2067 1.9958 7.33672 2.01097 7.46322 2.05272L9.68978 2.77343C9.89078 2.83843 10.1079 2.83843 10.3089 2.77343L12.5374 2.05077C13.0314 1.88877 13.5895 2.12393 13.8245 2.58593L14.891 4.67187C14.987 4.85887 15.1375 5.01141 15.3245 5.10741L17.4124 6.17382C17.8854 6.41582 18.1096 6.95883 17.9456 7.46483L17.2249 9.6914C17.1599 9.8914 17.1599 10.1066 17.2249 10.3066L17.3245 10.6152L17.9456 12.5351C18.1096 13.0411 17.8864 13.5842 17.4124 13.8262L15.3245 14.8926C15.1375 14.9886 14.987 15.1392 14.891 15.3262L13.8245 17.4121C13.5895 17.8731 13.0395 18.1123 12.5355 17.9473L10.307 17.2266C10.207 17.1936 10.1024 17.1777 9.99837 17.1777C9.89437 17.1777 9.78978 17.1926 9.68978 17.2266L7.46126 17.9492C6.96626 18.1112 6.4062 17.8751 6.1722 17.4141L5.10775 15.3281C5.01175 15.1411 4.8592 14.9886 4.6722 14.8926L2.58626 13.8262C2.11326 13.5842 1.88711 13.0411 2.05111 12.5351L2.77181 10.3086C2.83681 10.1086 2.83681 9.89335 2.77181 9.69335L2.05111 7.46483C1.88711 6.95883 2.11226 6.41582 2.58626 6.17382L4.6722 5.10741C4.8582 5.01141 5.0108 4.86082 5.1058 4.67382L6.1722 2.58788C6.34845 2.24138 6.70151 2.02037 7.08041 2.00194ZM14.2913 6.29296L8.99837 11.5859L6.70541 9.29296L5.29134 10.707L8.99837 14.4141L15.7054 7.70702L14.2913 6.29296Z" fill="#8697AA"/>
</svg>
