<svg width="20" height="21" viewBox="0 0 20 21" fill="none" xmlns="http://www.w3.org/2000/svg">
<path d="M12.5994 6.25C13.1928 6.25 13.7728 6.07405 14.2661 5.74441C14.7595 5.41477 15.144 4.94623 15.3711 4.39805C15.5981 3.84987 15.6575 3.24667 15.5418 2.66473C15.426 2.08279 15.1403 1.54824 14.7208 1.12868C14.3012 0.709119 13.7666 0.423399 13.1847 0.307649C12.6028 0.191889 11.9996 0.251299 11.4514 0.478359C10.9032 0.705429 10.4347 1.08994 10.105 1.58329C9.77542 2.07664 9.59942 2.65666 9.59942 3.25C9.59942 4.04565 9.91551 4.80871 10.4781 5.37132C11.0407 5.93393 11.8038 6.25 12.5994 6.25ZM12.5994 1.75C12.8961 1.75 13.1861 1.83797 13.4328 2.0028C13.6795 2.16762 13.8717 2.40189 13.9853 2.67598C14.0988 2.95007 14.1285 3.25167 14.0706 3.54264C14.0127 3.83361 13.8699 4.10088 13.6601 4.31066C13.4503 4.52044 13.183 4.6633 12.8921 4.72118C12.6011 4.77906 12.2995 4.74935 12.0254 4.63582C11.7513 4.52229 11.5171 4.33003 11.3522 4.08336C11.1874 3.83668 11.0994 3.54667 11.0994 3.25C11.0994 2.85218 11.2575 2.47065 11.5388 2.18934C11.8201 1.90804 12.2016 1.75 12.5994 1.75ZM18.9097 11.1888C18.8526 11.215 18.2076 11.4963 17.0657 11.4963C15.7672 11.4963 13.8266 11.1325 11.376 9.6213C11.003 10.6801 10.5187 11.6964 9.93132 12.6531C10.9864 12.9779 11.9789 13.4791 12.8666 14.1353C14.6544 15.4984 15.5994 17.4391 15.5994 19.75C15.5994 19.9489 15.5204 20.1397 15.3798 20.2803C15.2391 20.421 15.0483 20.5 14.8494 20.5C14.6505 20.5 14.4598 20.421 14.3191 20.2803C14.1785 20.1397 14.0994 19.9489 14.0994 19.75C14.0994 15.8406 10.8472 14.4334 9.02382 13.9516C8.97221 14.0172 8.91882 14.0838 8.86542 14.1484C7.02414 16.3797 4.71695 17.5403 2.15008 17.5403C1.85771 17.5417 1.56546 17.5282 1.27445 17.5C1.07554 17.4801 0.892676 17.382 0.766086 17.2273C0.639496 17.0726 0.579556 16.8739 0.599446 16.675C0.619346 16.4761 0.717436 16.2932 0.872156 16.1666C1.02687 16.0401 1.22554 15.9801 1.42445 16C3.85445 16.2419 5.96852 15.2978 7.7057 13.1875C8.87662 11.7681 9.67441 10.0366 10.0729 8.7813C6.42414 6.65781 4.09352 8.4653 4.0682 8.485C3.99181 8.5502 3.90308 8.5995 3.80729 8.6297C3.7115 8.66 3.6106 8.6708 3.51059 8.6613C3.41057 8.6519 3.31347 8.6224 3.22506 8.5747C3.13664 8.527 3.05871 8.462 2.99589 8.3836C2.93307 8.3052 2.88665 8.215 2.85936 8.1183C2.83208 8.0216 2.8245 7.92045 2.83708 7.82077C2.84965 7.7211 2.88212 7.62497 2.93256 7.53809C2.983 7.45121 3.05038 7.37534 3.1307 7.315C3.27133 7.2025 6.62008 4.59625 11.5222 7.93094C15.7851 10.8288 18.2657 9.835 18.2891 9.8238C18.379 9.7813 18.4764 9.7572 18.5756 9.7527C18.6749 9.7482 18.7741 9.7635 18.8674 9.7977C18.9607 9.8319 19.0463 9.8843 19.1192 9.9518C19.192 10.0193 19.2508 10.1007 19.292 10.1911C19.3331 10.2816 19.3559 10.3793 19.359 10.4786C19.3621 10.5779 19.3454 10.6769 19.31 10.7697C19.2745 10.8625 19.2209 10.9473 19.1524 11.0193C19.0838 11.0912 19.0007 11.1488 18.9097 11.1888Z" fill="white" fill-opacity="0.5"/>
</svg>
