<svg width="25" height="24" viewBox="0 0 25 24" fill="none" xmlns="http://www.w3.org/2000/svg">
<path d="M18.54 19.2813C18.4243 17.2344 17.2569 16.5847 15.5494 16.0156C14.2449 15.581 13.8857 14.2113 13.7871 13.4844" stroke="white" stroke-opacity="0.5" stroke-width="2.05714" stroke-miterlimit="10"/>
<path d="M11.3123 13.4834C11.2154 14.2068 10.8631 15.5782 9.55088 16.0154C7.84345 16.5845 6.67431 17.2325 6.55859 19.2794" stroke="white" stroke-opacity="0.5" stroke-width="2.05714" stroke-miterlimit="10"/>
<path d="M12.5497 13.7143C10.6562 13.7143 9.12109 12.1791 9.12109 10.2857V9.42857C9.12109 7.53514 10.6562 6 12.5497 6C14.4431 6 15.9782 7.53514 15.9782 9.42857V10.2857C15.9782 12.1791 14.4431 13.7143 12.5497 13.7143Z" stroke="white" stroke-opacity="0.5" stroke-width="2.05714" stroke-miterlimit="10" stroke-linecap="square"/>
<path d="M12.5497 21.4285C17.7569 21.4285 21.9782 17.2071 21.9782 11.9999C21.9782 6.79261 17.7569 2.57129 12.5497 2.57129C7.34241 2.57129 3.12109 6.79261 3.12109 11.9999C3.12109 17.2071 7.34241 21.4285 12.5497 21.4285Z" stroke="white" stroke-opacity="0.5" stroke-width="2.05714" stroke-miterlimit="10" stroke-linecap="square"/>
</svg>
