<svg width="64" height="64" viewBox="0 0 64 64" fill="none" xmlns="http://www.w3.org/2000/svg">
<g clip-path="url(#clip0_9698_55127)">
<path d="M52.1617 49.4316C51.431 50.505 50.503 51.433 49.4297 52.1636L56.763 59.497L59.495 56.765L52.1617 49.4316Z" fill="#1B81DC"/>
<path d="M63.8665 34.0673C62.9199 40.6273 57.0532 45.334 50.4932 45.334H13.5198C6.94652 45.334 1.07985 40.6273 0.13318 34.0673C-1.02682 25.8807 5.22651 18.8673 13.1065 18.8673C13.1598 18.8673 13.2132 18.8807 13.2665 18.8807C15.9198 11.0007 23.2932 5.33398 31.9998 5.33398C38.1598 5.33398 43.6665 8.17399 47.2798 12.6273C48.7465 14.414 49.8932 16.454 50.6532 18.6807C50.6932 18.7473 50.7065 18.814 50.7332 18.8807C50.7865 18.8807 50.8398 18.8673 50.8932 18.8673C58.7732 18.8673 65.0265 25.894 63.8665 34.0673Z" fill="#BEDCF9"/>
<path d="M43.638 33.334C37.9473 33.334 33.334 37.9473 33.334 43.638C33.334 49.3287 37.9473 53.942 43.638 53.942C49.3287 53.942 53.942 49.3287 53.942 43.638C53.942 37.9473 49.3287 33.334 43.638 33.334Z" fill="#BEDCF9"/>
<path d="M53.8566 44.906C53.9073 44.49 53.942 44.0687 53.942 43.638C53.942 37.9473 49.3287 33.334 43.638 33.334C37.9473 33.3327 33.334 37.9473 33.334 43.638C33.334 44.2167 33.394 44.7807 33.4847 45.3327H50.494C51.6446 45.3327 52.7713 45.1807 53.8566 44.906Z" fill="#439EED"/>
</g>
<defs>
<clipPath id="clip0_9698_55127">
<rect width="64" height="64" fill="white"/>
</clipPath>
</defs>
</svg>
