<svg width="100" height="100" viewBox="0 0 100 100" fill="none" xmlns="http://www.w3.org/2000/svg">
<path d="M89.5846 50H41.668V6.25H89.5846V50Z" fill="#767CFF"/>
<path d="M82.5966 63.0414C81.032 59.9643 77.2716 58.7372 74.1924 60.2997L55.5133 69.7914H32.4258V76.0414H70.8049L79.8529 71.4435C82.932 69.881 84.1591 66.1185 82.5966 63.0414Z" fill="#413FFF"/>
<path d="M19.862 53.125H3.19531V92.7083H19.862V53.125Z" fill="#020053"/>
<path d="M19.8594 57.291H13.6094V88.541H19.8594V57.291Z" fill="#2718FF"/>
<path d="M96.0323 63.5556L96.0156 63.5264C94.376 60.591 90.6677 59.541 87.7323 61.1806L61.1281 76.041H36.526V69.791H57.3594C60.8115 69.791 63.6094 66.9931 63.6094 63.541C63.6094 60.0889 60.8115 57.291 57.3594 57.291H19.8594V88.541H61.526C61.5406 88.541 61.5531 88.5368 61.5656 88.5368C62.7552 88.6514 63.9906 88.4244 65.1115 87.7973L93.6844 71.8389C96.6198 70.1994 97.6698 66.491 96.0323 63.5556Z" fill="#767CFF"/>
<path d="M72.9154 12.5H58.332V16.6667H72.9154V12.5Z" fill="#413FFF"/>
</svg>
