<svg width="100" height="100" viewBox="0 0 100 100" fill="none" xmlns="http://www.w3.org/2000/svg">
<path d="M69.9987 87.4993L43.7487 51.666L35.207 57.916L57.082 87.4993H69.9987Z" fill="#413FFF"/>
<path d="M71.8763 48.5423L50.418 39.7923L53.543 32.084L72.7096 39.7923L84.793 37.2923L86.4596 45.6257L71.8763 48.5423Z" fill="#413FFF"/>
<path d="M19.5833 49.3743L13.125 44.3743L22.5 32.291L43.5417 27.916L45.2083 36.041L27.0833 39.791L19.5833 49.3743Z" fill="#413FFF"/>
<path d="M16.0404 81.6673L12.707 71.8757L27.082 67.084L33.5404 52.709L43.1237 56.8757L34.7904 75.4173L16.0404 81.6673Z" fill="#413FFF"/>
<path d="M43.475 27.9918L32.5117 55.0195L51.6242 62.7722L62.5875 35.7444L43.475 27.9918Z" fill="#2718FF"/>
<path d="M50.207 20.8327C50.207 25.6243 53.957 29.3744 58.7487 29.3744C63.5404 29.3744 67.2904 25.6243 67.2904 20.8327C67.2904 16.041 63.5404 12.291 58.7487 12.291C53.957 12.291 50.207 16.041 50.207 20.8327Z" fill="#A7AFFF"/>
</svg>
