<svg width="100" height="100" viewBox="0 0 100 100" fill="none" xmlns="http://www.w3.org/2000/svg">
<path d="M83.5693 59.9164C82.0047 56.8393 78.2443 55.6122 75.1651 57.1747L56.4859 66.6664H33.3984V72.9164H71.7776L80.8255 68.3185C83.9047 66.756 85.1318 62.9935 83.5693 59.9164Z" fill="#767CFF"/>
<path d="M20.8346 50H4.16797V89.5833H20.8346V50Z" fill="#413FFF"/>
<path d="M20.832 54.166H14.582V85.416H20.832V54.166Z" fill="#2718FF"/>
<path d="M97.0049 60.4306L96.9883 60.4014C95.3487 57.466 91.6404 56.416 88.7049 58.0556L62.1008 72.916H37.4987V66.666H58.332C61.7841 66.666 64.582 63.8681 64.582 60.416C64.582 56.9639 61.7841 54.166 58.332 54.166H20.832V85.416H62.4987C62.5133 85.416 62.5258 85.4118 62.5383 85.4118C63.7279 85.5264 64.9612 85.2994 66.0841 84.6723L94.657 68.7139C97.5924 67.0744 98.6424 63.366 97.0049 60.4306Z" fill="#CED4FF"/>
<path d="M89.5706 31.2337V20.8525H84.6414C84.3102 19.7671 83.8727 18.7296 83.3497 17.7462L86.8393 14.2566L79.4977 6.91497L76.0081 10.4046C75.0227 9.88164 73.9852 9.44414 72.8997 9.11289V4.18164H62.5185V9.11081C61.4331 9.44206 60.3956 9.87956 59.4102 10.4025L55.9206 6.91289L48.5789 14.2546L52.0685 17.7441C51.5456 18.7296 51.1081 19.7671 50.7768 20.8504H45.8477V31.2316H50.7768C51.1081 32.3171 51.5456 33.3546 52.0685 34.34L48.5789 37.8296L55.9206 45.1712L59.4102 41.6816C60.3956 42.2046 61.4331 42.6421 62.5185 42.9733V47.9025H72.8997V42.9733C73.9852 42.6421 75.0227 42.2046 76.0081 41.6816L79.4977 45.1712L86.8393 37.8296L83.3497 34.34C83.8727 33.3546 84.3102 32.3171 84.6414 31.2316L89.5706 31.2337Z" fill="#413FFF"/>
<path d="M67.7083 37.5007C74.0366 37.5007 79.1667 32.3706 79.1667 26.0423C79.1667 19.7141 74.0366 14.584 67.7083 14.584C61.3801 14.584 56.25 19.7141 56.25 26.0423C56.25 32.3706 61.3801 37.5007 67.7083 37.5007Z" fill="#2718FF"/>
</svg>
