<svg width="20" height="21" viewBox="0 0 20 21" fill="none" xmlns="http://www.w3.org/2000/svg">
<path d="M7.00228 0.509756C5.92373 0.564506 4.89841 1.18697 4.39291 2.17772L3.47494 3.9746L1.67806 4.89257C0.324061 5.58357 -0.317282 7.13507 0.150718 8.58007L0.771811 10.5L0.150718 12.4219C-0.318282 13.8669 0.322108 15.4174 1.67611 16.1094L3.47298 17.0254L4.39291 18.8223C5.06791 20.1443 6.67045 20.8096 8.07845 20.3516L10.0003 19.7285L11.9202 20.3496C12.2272 20.4496 12.5455 20.5 12.8675 20.5C14.0295 20.5 15.0787 19.8573 15.6077 18.8223L16.5257 17.0254L18.3245 16.1074C19.6775 15.4154 20.3189 13.8639 19.8499 12.4199L19.2288 10.5L19.8499 8.58007C20.3189 7.13407 19.6785 5.58357 18.3245 4.89257L16.5277 3.9746L15.6077 2.17772C14.9347 0.856725 13.3292 0.193381 11.9222 0.650381L10.0003 1.27147L8.08041 0.652334C7.72616 0.537084 7.3618 0.491506 7.00228 0.509756ZM7.08236 2.50194C7.20866 2.4958 7.33867 2.51097 7.46517 2.55272L9.69173 3.27343C9.89273 3.33843 10.1099 3.33843 10.3109 3.27343L12.5394 2.55077C13.0334 2.38877 13.5915 2.62393 13.8265 3.08593L14.8929 5.17187C14.9889 5.35887 15.1395 5.51141 15.3265 5.60741L17.4144 6.67382C17.8874 6.91582 18.1116 7.45883 17.9476 7.96483L17.2269 10.1914C17.1619 10.3914 17.1619 10.6066 17.2269 10.8066L17.3265 11.1152L17.9476 13.0351C18.1116 13.5411 17.8884 14.0842 17.4144 14.3262L15.3265 15.3926C15.1395 15.4886 14.9889 15.6392 14.8929 15.8262L13.8265 17.9121C13.5915 18.3731 13.0414 18.6123 12.5374 18.4473L10.3089 17.7266C10.2089 17.6936 10.1043 17.6777 10.0003 17.6777C9.89633 17.6777 9.79173 17.6926 9.69173 17.7266L7.46322 18.4492C6.96822 18.6112 6.40816 18.3751 6.17416 17.9141L5.1097 15.8281C5.0137 15.6411 4.86116 15.4886 4.67416 15.3926L2.58822 14.3262C2.11522 14.0842 1.88906 13.5411 2.05306 13.0351L2.77376 10.8086C2.83876 10.6086 2.83876 10.3933 2.77376 10.1933L2.05306 7.96483C1.88906 7.45883 2.11422 6.91582 2.58822 6.67382L4.67416 5.60741C4.86016 5.51141 5.01275 5.36082 5.10775 5.17382L6.17416 3.08788C6.35041 2.74138 6.70347 2.52037 7.08236 2.50194ZM14.2933 6.79296L9.00033 12.0859L6.70736 9.79296L5.2933 11.207L9.00033 14.9141L15.7074 8.20702L14.2933 6.79296Z" fill="#0E64BB"/>
</svg>
