<svg width="52" height="45" viewBox="0 0 52 45" fill="none" xmlns="http://www.w3.org/2000/svg">
<path d="M19.4375 0.5C18.095 0.5 17 1.59497 17 2.9375V7H13.75V5.42261C13.75 4.97192 13.3882 4.61011 12.9375 4.61011C12.4868 4.61011 12.125 4.97192 12.125 5.42261V7H10.5V1.35693C10.5 0.909424 10.1382 0.544434 9.6875 0.544434C9.23682 0.544434 8.875 0.909424 8.875 1.35693V7H8.49731C7.95142 7 7.44678 7.26978 7.14526 7.72363L4.34595 11.9226C3.22559 12.1416 2.375 13.1287 2.375 14.3125C2.375 15.3694 3.05737 16.2644 4 16.6008V42.75H1.5625C1.11182 42.75 0.75 43.115 0.75 43.5625C0.75 44.01 1.11182 44.375 1.5625 44.375H50.3125C50.7632 44.375 51.125 44.01 51.125 43.5625C51.125 43.115 50.7632 42.75 50.3125 42.75H47.875V16.6008C48.8176 16.2644 49.5 15.3694 49.5 14.3125C49.5 13.1287 48.6494 12.1416 47.5291 11.9226L44.7297 7.72363C44.4282 7.26978 43.9236 7 43.3777 7H34.875V2.9375C34.875 1.59497 33.78 0.5 32.4375 0.5H19.4375ZM19.4375 2.125H32.4375C32.885 2.125 33.25 2.48999 33.25 2.9375V15.9375C33.25 16.385 32.885 16.75 32.4375 16.75H19.4375C18.99 16.75 18.625 16.385 18.625 15.9375V2.9375C18.625 2.48999 18.99 2.125 19.4375 2.125ZM25.125 3.75C24.23 3.75 23.5 4.47998 23.5 5.375V7H21.875C20.98 7 20.25 7.72998 20.25 8.625V10.25C20.25 11.145 20.98 11.875 21.875 11.875H23.5V13.5C23.5 14.395 24.23 15.125 25.125 15.125H26.75C27.645 15.125 28.375 14.395 28.375 13.5V11.875H30C30.895 11.875 31.625 11.145 31.625 10.25V8.625C31.625 7.72998 30.895 7 30 7H28.375V5.375C28.375 4.47998 27.645 3.75 26.75 3.75H25.125ZM25.125 5.375H26.75V7C26.75 7.89502 27.48 8.625 28.375 8.625H30V10.25H28.375C27.48 10.25 26.75 10.98 26.75 11.875V13.5H25.125V11.875C25.125 10.98 24.395 10.25 23.5 10.25H21.875V8.625H23.5C24.395 8.625 25.125 7.89502 25.125 7V5.375ZM8.49731 8.625H8.875V9.48511C8.875 9.93262 9.23682 10.2976 9.6875 10.2976C10.1382 10.2976 10.5 9.93262 10.5 9.48511V8.625H12.125V9.48511C12.125 9.93262 12.4868 10.2976 12.9375 10.2976C13.3882 10.2976 13.75 9.93262 13.75 9.48511V8.625H17V11.875H6.32959L8.49731 8.625ZM34.875 8.625H43.3777L45.5454 11.875H34.875V8.625ZM4.8125 13.5H17V15.125H4.8125C4.36499 15.125 4 14.76 4 14.3125C4 13.865 4.36499 13.5 4.8125 13.5ZM34.875 13.5H47.0625C47.51 13.5 47.875 13.865 47.875 14.3125C47.875 14.76 47.51 15.125 47.0625 15.125H34.875V13.5ZM5.625 16.75H17.1492C17.4856 17.6926 18.3806 18.375 19.4375 18.375H32.4375C33.4944 18.375 34.3894 17.6926 34.7258 16.75H46.25V42.75H31.625V34.5837C31.625 33.6887 30.895 32.9587 30 32.9587H21.875C20.98 32.9587 20.25 33.6887 20.25 34.5837V42.75H5.625V31.375H38.125C38.5757 31.375 38.9375 31.01 38.9375 30.5625C38.9375 30.115 38.5757 29.75 38.125 29.75H5.625V16.75ZM9.6875 21.625C9.23682 21.625 8.875 21.99 8.875 22.4375C8.875 22.885 9.23682 23.25 9.6875 23.25H11.3125C11.7632 23.25 12.125 22.885 12.125 22.4375C12.125 21.99 11.7632 21.625 11.3125 21.625H9.6875ZM14.5625 21.625C14.1118 21.625 13.75 21.99 13.75 22.4375C13.75 22.885 14.1118 23.25 14.5625 23.25H16.1875C16.6382 23.25 17 22.885 17 22.4375C17 21.99 16.6382 21.625 16.1875 21.625H14.5625ZM22.6875 21.625C22.2368 21.625 21.875 21.99 21.875 22.4375C21.875 22.885 22.2368 23.25 22.6875 23.25H24.3125C24.7632 23.25 25.125 22.885 25.125 22.4375C25.125 21.99 24.7632 21.625 24.3125 21.625H22.6875ZM27.5625 21.625C27.1118 21.625 26.75 21.99 26.75 22.4375C26.75 22.885 27.1118 23.25 27.5625 23.25H29.1875C29.6382 23.25 30 22.885 30 22.4375C30 21.99 29.6382 21.625 29.1875 21.625H27.5625ZM35.6875 21.625C35.2368 21.625 34.875 21.99 34.875 22.4375C34.875 22.885 35.2368 23.25 35.6875 23.25H37.3125C37.7632 23.25 38.125 22.885 38.125 22.4375C38.125 21.99 37.7632 21.625 37.3125 21.625H35.6875ZM40.5625 21.625C40.1118 21.625 39.75 21.99 39.75 22.4375C39.75 22.885 40.1118 23.25 40.5625 23.25H42.1875C42.6382 23.25 43 22.885 43 22.4375C43 21.99 42.6382 21.625 42.1875 21.625H40.5625ZM9.6875 24.875C9.23682 24.875 8.875 25.24 8.875 25.6875C8.875 26.135 9.23682 26.5 9.6875 26.5H11.3125C11.7632 26.5 12.125 26.135 12.125 25.6875C12.125 25.24 11.7632 24.875 11.3125 24.875H9.6875ZM14.5625 24.875C14.1118 24.875 13.75 25.24 13.75 25.6875C13.75 26.135 14.1118 26.5 14.5625 26.5H16.1875C16.6382 26.5 17 26.135 17 25.6875C17 25.24 16.6382 24.875 16.1875 24.875H14.5625ZM22.6875 24.875C22.2368 24.875 21.875 25.24 21.875 25.6875C21.875 26.135 22.2368 26.5 22.6875 26.5H24.3125C24.7632 26.5 25.125 26.135 25.125 25.6875C25.125 25.24 24.7632 24.875 24.3125 24.875H22.6875ZM27.5625 24.875C27.1118 24.875 26.75 25.24 26.75 25.6875C26.75 26.135 27.1118 26.5 27.5625 26.5H29.1875C29.6382 26.5 30 26.135 30 25.6875C30 25.24 29.6382 24.875 29.1875 24.875H27.5625ZM35.6875 24.875C35.2368 24.875 34.875 25.24 34.875 25.6875C34.875 26.135 35.2368 26.5 35.6875 26.5H37.3125C37.7632 26.5 38.125 26.135 38.125 25.6875C38.125 25.24 37.7632 24.875 37.3125 24.875H35.6875ZM40.5625 24.875C40.1118 24.875 39.75 25.24 39.75 25.6875C39.75 26.135 40.1118 26.5 40.5625 26.5H42.1875C42.6382 26.5 43 26.135 43 25.6875C43 25.24 42.6382 24.875 42.1875 24.875H40.5625ZM40.5625 29.75C40.1118 29.75 39.75 30.115 39.75 30.5625C39.75 31.01 40.1118 31.375 40.5625 31.375H43.8125C44.2632 31.375 44.625 31.01 44.625 30.5625C44.625 30.115 44.2632 29.75 43.8125 29.75H40.5625ZM21.875 34.5837H25.125V42.7087H21.875V34.5837ZM26.75 34.5837H30V42.7087H26.75V34.5837ZM9.6875 34.625C9.23682 34.625 8.875 34.99 8.875 35.4375C8.875 35.885 9.23682 36.25 9.6875 36.25H11.3125C11.7632 36.25 12.125 35.885 12.125 35.4375C12.125 34.99 11.7632 34.625 11.3125 34.625H9.6875ZM14.5625 34.625C14.1118 34.625 13.75 34.99 13.75 35.4375C13.75 35.885 14.1118 36.25 14.5625 36.25H16.1875C16.6382 36.25 17 35.885 17 35.4375C17 34.99 16.6382 34.625 16.1875 34.625H14.5625ZM35.6875 34.625C35.2368 34.625 34.875 34.99 34.875 35.4375C34.875 35.885 35.2368 36.25 35.6875 36.25H37.3125C37.7632 36.25 38.125 35.885 38.125 35.4375C38.125 34.99 37.7632 34.625 37.3125 34.625H35.6875ZM40.5625 34.625C40.1118 34.625 39.75 34.99 39.75 35.4375C39.75 35.885 40.1118 36.25 40.5625 36.25H42.1875C42.6382 36.25 43 35.885 43 35.4375C43 34.99 42.6382 34.625 42.1875 34.625H40.5625ZM9.6875 37.875C9.23682 37.875 8.875 38.24 8.875 38.6875C8.875 39.135 9.23682 39.5 9.6875 39.5H11.3125C11.7632 39.5 12.125 39.135 12.125 38.6875C12.125 38.24 11.7632 37.875 11.3125 37.875H9.6875ZM14.5625 37.875C14.1118 37.875 13.75 38.24 13.75 38.6875C13.75 39.135 14.1118 39.5 14.5625 39.5H16.1875C16.6382 39.5 17 39.135 17 38.6875C17 38.24 16.6382 37.875 16.1875 37.875H14.5625ZM35.6875 37.875C35.2368 37.875 34.875 38.24 34.875 38.6875C34.875 39.135 35.2368 39.5 35.6875 39.5H37.3125C37.7632 39.5 38.125 39.135 38.125 38.6875C38.125 38.24 37.7632 37.875 37.3125 37.875H35.6875ZM40.5625 37.875C40.1118 37.875 39.75 38.24 39.75 38.6875C39.75 39.135 40.1118 39.5 40.5625 39.5H42.1875C42.6382 39.5 43 39.135 43 38.6875C43 38.24 42.6382 37.875 42.1875 37.875H40.5625Z" fill="#526277"/>
</svg>
