<svg width="10" height="14" viewBox="0 0 10 14" fill="none" xmlns="http://www.w3.org/2000/svg">
<path d="M5.00065 13.6673C4.8451 13.6673 4.71176 13.6229 4.60065 13.534C4.48954 13.4451 4.40621 13.3284 4.35065 13.184C4.13954 12.5618 3.87287 11.9784 3.55065 11.434C3.23954 10.8895 2.80065 10.2507 2.23398 9.51732C1.66732 8.78398 1.20621 8.08398 0.850651 7.41732C0.506207 6.75065 0.333984 5.94509 0.333984 5.00065C0.333984 3.70065 0.783985 2.60065 1.68398 1.70065C2.5951 0.78954 3.70065 0.333984 5.00065 0.333984C6.30065 0.333984 7.40065 0.78954 8.30065 1.70065C9.21176 2.60065 9.66732 3.70065 9.66732 5.00065C9.66732 6.01176 9.47287 6.85621 9.08398 7.53398C8.70621 8.20065 8.26732 8.86176 7.76732 9.51732C7.16732 10.3173 6.71176 10.984 6.40065 11.5173C6.10065 12.0395 5.85065 12.5951 5.65065 13.184C5.5951 13.3395 5.50621 13.4618 5.38399 13.5507C5.27287 13.6284 5.1451 13.6673 5.00065 13.6673ZM5.00065 11.284C5.18954 10.9062 5.40065 10.534 5.63399 10.1673C5.87843 9.80065 6.23398 9.31176 6.70065 8.70065C7.17843 8.07843 7.56732 7.50621 7.86732 6.98398C8.17843 6.45065 8.33398 5.78954 8.33398 5.00065C8.33398 4.07843 8.00621 3.29509 7.35065 2.65065C6.70621 1.9951 5.92287 1.66732 5.00065 1.66732C4.07843 1.66732 3.28954 1.9951 2.63399 2.65065C1.98954 3.29509 1.66732 4.07843 1.66732 5.00065C1.66732 5.78954 1.81732 6.45065 2.11732 6.98398C2.42843 7.50621 2.82287 8.07843 3.30065 8.70065C3.76732 9.31176 4.11732 9.80065 4.35065 10.1673C4.5951 10.534 4.81176 10.9062 5.00065 11.284ZM5.00065 6.66732C5.46732 6.66732 5.86176 6.50621 6.18398 6.18398C6.50621 5.86176 6.66732 5.46732 6.66732 5.00065C6.66732 4.53398 6.50621 4.13954 6.18398 3.81732C5.86176 3.4951 5.46732 3.33398 5.00065 3.33398C4.53398 3.33398 4.13954 3.4951 3.81732 3.81732C3.4951 4.13954 3.33398 4.53398 3.33398 5.00065C3.33398 5.46732 3.4951 5.86176 3.81732 6.18398C4.13954 6.50621 4.53398 6.66732 5.00065 6.66732Z" fill="#1006AC"/>
</svg>
