<svg width="13" height="13" viewBox="0 0 13 13" fill="none" xmlns="http://www.w3.org/2000/svg">
<path d="M9.9319 0.0996094C9.1959 0.0996094 8.59961 0.696943 8.59961 1.43294C8.59961 2.16894 9.1959 2.76628 9.9319 2.76628C10.6695 2.76628 11.2663 2.16894 11.2663 1.43294C11.2663 0.696943 10.6695 0.0996094 9.9319 0.0996094ZM4.86628 2.76628C4.72484 2.7663 4.5892 2.82251 4.48919 2.92253L2.88919 4.52253C2.78917 4.62253 2.73296 4.75817 2.73294 4.89961C2.73294 5.04106 2.78913 5.17671 2.88915 5.27673C2.98917 5.37675 3.12483 5.43294 3.26628 5.43294C3.40772 5.43292 3.54336 5.37672 3.64336 5.27669C3.64511 5.27497 3.64684 5.27323 3.64857 5.27148L4.97982 3.94023L6.21732 4.14648L5.07565 6.04857L5.07669 6.05273C4.94496 6.25967 4.86628 6.50334 4.86628 6.76628C4.86628 7.12094 5.00734 7.44088 5.23294 7.67982V7.68503L7.22669 9.74544L7.53294 12.3663C7.53294 12.5077 7.58913 12.6434 7.68915 12.7434C7.78917 12.8434 7.92483 12.8996 8.06628 12.8996C8.20772 12.8996 8.34338 12.8434 8.4434 12.7434C8.54342 12.6434 8.59961 12.5077 8.59961 12.3663V9.16628C8.59955 9.05666 8.56573 8.94973 8.50273 8.86003L7.4194 7.31211L8.94128 4.78919L8.93815 4.78398C9.05922 4.58292 9.13294 4.35081 9.13294 4.09961C9.13294 3.36361 8.53668 2.76681 7.79961 2.76628H7.79857H4.86628ZM9.82253 4.83294L9.13294 5.96628L9.24857 6.02461L9.92878 6.42565C10.0108 6.47405 10.1043 6.49958 10.1996 6.49961H12.3329C12.4744 6.49961 12.61 6.44342 12.7101 6.3434C12.8101 6.24338 12.8663 6.10772 12.8663 5.96628C12.8663 5.82483 12.8101 5.68917 12.7101 5.58915C12.61 5.48913 12.4744 5.43294 12.3329 5.43294H10.5486L9.82253 4.83294ZM4.26419 7.89128L3.46315 8.84753L1.13294 9.16628C0.991494 9.16628 0.855838 9.22247 0.755819 9.32248C0.6558 9.4225 0.599609 9.55816 0.599609 9.69961C0.599609 9.84106 0.6558 9.97671 0.755819 10.0767C0.855838 10.1768 0.991494 10.2329 1.13294 10.2329H3.79961C3.87146 10.2328 3.94254 10.2182 4.0086 10.1899C4.07465 10.1616 4.1343 10.1203 4.18398 10.0684L4.22044 10.0298L5.34544 9.00586L4.26419 7.89128Z" fill="#1B81DC"/>
</svg>
