<svg width="15" height="14" viewBox="0 0 15 14" fill="none" xmlns="http://www.w3.org/2000/svg">
<path d="M3.82857 0.5C3.56685 0.5 3.30904 0.59375 3.09419 0.765625L3.06294 0.78125L3.04732 0.796875L1.48482 2.40625L1.50044 2.42188C1.01802 2.86719 0.869583 3.5332 1.07857 4.10938C1.08052 4.11328 1.07661 4.12109 1.07857 4.125C1.5024 5.33789 2.58638 7.67969 4.70357 9.79688C6.82857 11.9219 9.20161 12.9629 10.3754 13.4219H10.3911C10.9985 13.625 11.6567 13.4805 12.1254 13.0781L13.7036 11.5C14.1176 11.0859 14.1176 10.3672 13.7036 9.95312L11.6723 7.92188L11.6567 7.89062C11.2426 7.47656 10.5083 7.47656 10.0942 7.89062L9.09419 8.89062C8.73286 8.7168 7.87154 8.27148 7.04732 7.48438C6.22896 6.70312 5.81099 5.80469 5.65669 5.45312L6.65669 4.45312C7.07661 4.0332 7.08443 3.33398 6.64107 2.92188L6.65669 2.90625L6.60982 2.85938L4.60982 0.796875L4.59419 0.78125L4.56294 0.765625C4.3481 0.59375 4.09029 0.5 3.82857 0.5ZM3.82857 1.5C3.86568 1.5 3.90279 1.51758 3.93794 1.54688L5.93794 3.59375L5.98482 3.64062C5.98091 3.63672 6.01411 3.68945 5.95357 3.75L4.70357 5L4.46919 5.21875L4.57857 5.53125C4.57857 5.53125 5.15279 7.06836 6.35982 8.21875L6.46919 8.3125C7.6313 9.37305 9.00044 9.95312 9.00044 9.95312L9.31294 10.0938L10.7973 8.60938C10.8833 8.52344 10.8676 8.52344 10.9536 8.60938L13.0004 10.6562C13.0864 10.7422 13.0864 10.7109 13.0004 10.7969L11.4692 12.3281C11.2387 12.5254 10.9946 12.5664 10.7036 12.4688C9.57076 12.0234 7.36958 11.0566 5.40669 9.09375C3.42818 7.11523 2.39497 4.87109 2.01607 3.78125C1.9399 3.57812 1.99458 3.27734 2.17232 3.125L2.20357 3.09375L3.71919 1.54688C3.75435 1.51758 3.79146 1.5 3.82857 1.5Z" fill="#020053"/>
</svg>
