<svg width="100" height="101" viewBox="0 0 100 101" fill="none" xmlns="http://www.w3.org/2000/svg">
<path d="M69.9987 88.2923L43.7487 52.459L35.207 58.709L57.082 88.2923H69.9987Z" fill="#413FFF"/>
<path d="M71.8763 49.3353L50.418 40.5853L53.543 32.877L72.7096 40.5853L84.793 38.0853L86.4596 46.4186L71.8763 49.3353Z" fill="#413FFF"/>
<path d="M19.5833 50.1673L13.125 45.1673L22.5 33.084L43.5417 28.709L45.2083 36.834L27.0833 40.584L19.5833 50.1673Z" fill="#413FFF"/>
<path d="M16.0404 82.4603L12.707 72.6686L27.082 67.877L33.5404 53.502L43.1237 57.6686L34.7904 76.2103L16.0404 82.4603Z" fill="#413FFF"/>
<path d="M43.475 28.7847L32.5117 55.8125L51.6242 63.5651L62.5875 36.5374L43.475 28.7847Z" fill="#2718FF"/>
<path d="M50.207 21.6257C50.207 26.4173 53.957 30.1673 58.7487 30.1673C63.5404 30.1673 67.2904 26.4173 67.2904 21.6257C67.2904 16.834 63.5404 13.084 58.7487 13.084C53.957 13.084 50.207 16.834 50.207 21.6257Z" fill="#A7AFFF"/>
</svg>
