<svg width="16" height="17" viewBox="0 0 16 17" fill="none" xmlns="http://www.w3.org/2000/svg">
<path fill-rule="evenodd" clip-rule="evenodd" d="M1.64062 3.91721C1.64062 2.91338 2.4544 2.09961 3.45822 2.09961H12.5462C13.55 2.09961 14.3638 2.91337 14.3638 3.91721V13.0052C14.3638 14.0091 13.55 14.8228 12.5462 14.8228H3.45822C2.45441 14.8228 1.64062 14.0091 1.64062 13.0052V3.91721ZM3.45822 3.46281C3.20727 3.46281 3.00382 3.66625 3.00382 3.91721V13.0052C3.00382 13.2562 3.20725 13.4596 3.45822 13.4596H12.5462C12.7972 13.4596 13.0006 13.2562 13.0006 13.0052V3.91721C13.0006 3.66627 12.7972 3.46281 12.5462 3.46281H3.45822Z" fill="#FF282D"/>
<path d="M8.00156 12.4622C8.31532 12.4622 8.56956 12.2079 8.56956 11.8942C8.56956 11.5805 8.31532 11.3262 8.00156 11.3262C7.6879 11.3262 7.43359 11.5805 7.43359 11.8942C7.43359 12.2079 7.6879 12.4622 8.00156 12.4622Z" fill="#FF282D"/>
<path fill-rule="evenodd" clip-rule="evenodd" d="M8.49734 5.74055C8.05446 5.69898 7.52588 5.78551 7.06275 5.99017C6.71843 6.14233 6.31596 5.98656 6.1638 5.64225C6.01164 5.29793 6.16742 4.89546 6.51173 4.7433C7.17324 4.45097 7.9346 4.31853 8.62475 4.38332C9.2982 4.44654 10.037 4.71634 10.4439 5.37478C11.1992 6.59691 10.5776 7.89207 9.60664 8.71483C8.74233 9.44719 8.68833 9.65435 8.68833 9.87666C8.68833 10.2531 8.38316 10.5583 8.00673 10.5583C7.63029 10.5583 7.32513 10.2531 7.32513 9.87666C7.32513 8.96297 7.88568 8.38629 8.72538 7.67479C9.45838 7.05369 9.52309 6.47786 9.28427 6.09142L9.28425 6.09137C9.19414 5.94555 8.9569 5.78369 8.49734 5.74055Z" fill="#FF282D"/>
</svg>
