<svg width="41" height="40" viewBox="0 0 41 40" fill="none" xmlns="http://www.w3.org/2000/svg">
<g clip-path="url(#clip0_11042_30500)">
<path d="M20.5013 31.9891L8.80231 38.0871L10.9973 25.0911L1.57031 15.8601L14.6263 13.9291L20.5013 2.12109L26.3793 13.9291L39.4323 15.8601L30.0083 25.0911L32.2013 38.0901L20.5013 31.9891Z" fill="#FFEEA3"/>
<path d="M20.5 3.245L25.813 13.92L26.046 14.387L26.562 14.463L38.361 16.209L29.843 24.553L29.47 24.919L29.557 25.434L31.539 37.184L20.962 31.667L20.5 31.425L20.038 31.666L9.461 37.181L11.446 25.434L11.533 24.919L11.16 24.553L2.639 16.209L14.441 14.463L14.957 14.387L15.19 13.92L20.5 3.245ZM20.5 1L14.294 13.474L0.5 15.514L10.46 25.267L8.14 38.997L20.5 32.553L32.86 39L30.543 25.267L40.5 15.514L26.709 13.474L20.5 1Z" fill="#BA9B48"/>
</g>
<defs>
<clipPath id="clip0_11042_30500">
<rect width="40" height="40" fill="white" transform="translate(0.5)"/>
</clipPath>
</defs>
</svg>
