<svg width="41" height="48" viewBox="0 0 41 48" fill="none" xmlns="http://www.w3.org/2000/svg">
<path d="M24.625 0.625C21.9367 0.625 19.75 2.81177 19.75 5.5C19.75 8.18823 21.9367 10.375 24.625 10.375C27.3132 10.375 29.5 8.18823 29.5 5.5C29.5 2.81177 27.3132 0.625 24.625 0.625ZM24.625 2.06592C26.5166 2.06592 28.0559 3.6084 28.0559 5.5C28.0559 7.3916 26.5166 8.93091 24.625 8.93091C22.7334 8.93091 21.1941 7.3916 21.1941 5.5C21.1941 3.6084 22.7334 2.06592 24.625 2.06592ZM20.042 10.6829C19.4929 10.7083 18.9406 10.7622 18.3916 10.8416L13.1611 11.5969C11.7678 11.7969 10.5617 12.7268 10.0095 14.0186L7.89254 18.9507C7.38156 20.1409 7.83541 21.5374 8.94308 22.2039C8.9526 22.2102 8.96212 22.2166 8.97164 22.2197C10.1967 22.937 11.7805 22.5339 12.5136 21.3152L14.5957 17.8398C14.7385 17.6082 14.9797 17.459 15.2463 17.4463L16.4777 17.3701L14.6718 24.4763C14.5227 24.3018 14.31 24.1875 14.0625 24.1875C13.6118 24.1875 13.25 24.5493 13.25 25V26.625C13.25 26.8567 13.3484 27.063 13.5039 27.209L11.3964 31.1667C10.9997 31.9062 10.2634 32.3887 9.42867 32.4521L3.33175 32.9092C2.39865 32.9822 1.5798 33.4773 1.08151 34.2739C0.589564 35.0674 0.503871 36.0227 0.852992 36.8923C1.31954 38.0603 2.4653 38.7903 3.74117 38.7109L11.7107 38.1936C13.872 38.054 15.8493 36.9685 17.1316 35.2197L20.0896 31.1921L23.9045 35.7529C24.5044 36.467 24.955 37.2795 25.247 38.165L27.7353 45.7473C28.1289 46.947 29.2397 47.75 30.5791 47.75C31.4328 47.75 32.2421 47.3755 32.7944 46.7249C33.3498 46.0742 33.5879 45.2141 33.4482 44.373L32.623 39.3394C32.2548 37.0955 31.455 34.9753 30.249 33.0488L26.6562 27.3137C26.8942 27.1709 27.0625 26.9233 27.0625 26.625V25C27.0625 24.6794 26.8752 24.4097 26.6054 24.2764L27.5988 19.6934L29.4238 21.1755C30.5664 22.1055 32.1279 22.3403 33.4958 21.7976L38.3994 19.833C39.5991 19.3538 40.2688 18.0461 39.9546 16.7861C39.6086 15.396 38.1899 14.5454 36.7998 14.8945L32.9277 15.8625C32.6516 15.9387 32.3564 15.8499 32.1565 15.6499L31.2202 14.7168C29.5031 12.9966 27.3481 11.7747 24.9931 11.1812C24.9836 11.178 24.9773 11.178 24.9677 11.1748C23.3491 10.7686 21.6987 10.6035 20.042 10.6829ZM20.115 12.3047C21.6035 12.2349 23.092 12.384 24.552 12.7458C24.5615 12.749 24.571 12.749 24.5774 12.749C26.6562 13.2695 28.5573 14.3455 30.0713 15.8625L31.0075 16.7988C31.6106 17.3987 32.4992 17.6462 33.3213 17.4368L37.1965 16.4719C37.717 16.3418 38.2502 16.6592 38.3803 17.1829C38.4978 17.6526 38.247 18.1445 37.7963 18.3223L32.8928 20.2869C32.0708 20.6138 31.1345 20.4709 30.4521 19.9124L27.5988 17.5986C27.3798 17.4209 27.0847 17.3701 26.8181 17.4622C26.5515 17.5574 26.3515 17.7827 26.2912 18.0557L24.4726 26.4473C24.425 26.6567 24.4631 26.8726 24.5742 27.0535L28.8684 33.9121C29.9633 35.6545 30.6838 37.5684 31.0202 39.5996L31.8454 44.6333C31.9057 45.0078 31.801 45.3855 31.5566 45.6711C31.3122 45.9568 30.9567 46.125 30.4997 46.125C29.9443 46.125 29.4555 45.7695 29.281 45.2427L26.7895 37.6572C26.434 36.575 25.885 35.5815 25.1518 34.7119L20.6672 29.3545C20.5117 29.1672 20.2863 29.0625 20.0451 29.0625C20.0356 29.0625 20.0261 29.0625 20.0166 29.0625C19.769 29.072 19.5373 29.1926 19.3913 29.3926L15.8208 34.2612C14.8242 35.6228 13.288 36.4639 11.6027 36.575L3.63327 37.0891C3.0715 37.1177 2.56686 36.8035 2.36056 36.2861C2.20822 35.9053 2.24313 35.4832 2.46212 35.1309C2.68112 34.7817 3.04293 34.5627 3.45236 34.5342L9.55245 34.0708C10.9458 33.9661 12.1709 33.1663 12.831 31.9316L15.8874 26.1934C15.916 26.1362 15.9414 26.0759 15.9572 26.0125L18.1821 17.2717L20.1372 17.1575C20.5847 17.1321 20.9275 16.7449 20.9021 16.2974C20.8735 15.8499 20.4768 15.5103 20.042 15.5356L15.1543 15.8213C14.3481 15.8689 13.6213 16.3101 13.2055 17.002L11.1203 20.4773C10.8442 20.9375 10.2412 21.0867 9.78414 20.8105C9.77462 20.8074 9.77145 20.8042 9.76193 20.7979C9.36203 20.5471 9.19699 20.0298 9.38741 19.5918L11.5012 14.6565C11.8344 13.8821 12.5581 13.3267 13.3928 13.2061L18.6233 12.4475C19.1184 12.3777 19.6167 12.3301 20.115 12.3047ZM1.87496 24.1875C1.42428 24.1875 1.06246 24.5493 1.06246 25V26.625C1.06246 27.0757 1.42428 27.4375 1.87496 27.4375C2.32565 27.4375 2.68746 27.0757 2.68746 26.625V25C2.68746 24.5493 2.32565 24.1875 1.87496 24.1875ZM5.93746 24.1875C5.48678 24.1875 5.12496 24.5493 5.12496 25V26.625C5.12496 27.0757 5.48678 27.4375 5.93746 27.4375C6.38815 27.4375 6.74996 27.0757 6.74996 26.625V25C6.74996 24.5493 6.38815 24.1875 5.93746 24.1875ZM9.99996 24.1875C9.54928 24.1875 9.18746 24.5493 9.18746 25V26.625C9.18746 27.0757 9.54928 27.4375 9.99996 27.4375C10.4506 27.4375 10.8125 27.0757 10.8125 26.625V25C10.8125 24.5493 10.4506 24.1875 9.99996 24.1875ZM18.125 24.1875C17.6743 24.1875 17.3125 24.5493 17.3125 25V26.625C17.3125 27.0757 17.6743 27.4375 18.125 27.4375C18.5756 27.4375 18.9375 27.0757 18.9375 26.625V25C18.9375 24.5493 18.5756 24.1875 18.125 24.1875ZM22.1875 24.1875C21.7368 24.1875 21.375 24.5493 21.375 25V26.625C21.375 27.0757 21.7368 27.4375 22.1875 27.4375C22.6381 27.4375 23 27.0757 23 26.625V25C23 24.5493 22.6381 24.1875 22.1875 24.1875ZM30.3125 24.1875C29.8618 24.1875 29.5 24.5493 29.5 25V26.625C29.5 27.0757 29.8618 27.4375 30.3125 27.4375C30.7631 27.4375 31.125 27.0757 31.125 26.625V25C31.125 24.5493 30.7631 24.1875 30.3125 24.1875ZM34.375 24.1875C33.9243 24.1875 33.5625 24.5493 33.5625 25V26.625C33.5625 27.0757 33.9243 27.4375 34.375 27.4375C34.8256 27.4375 35.1875 27.0757 35.1875 26.625V25C35.1875 24.5493 34.8256 24.1875 34.375 24.1875ZM38.4375 24.1875C37.9868 24.1875 37.625 24.5493 37.625 25V26.625C37.625 27.0757 37.9868 27.4375 38.4375 27.4375C38.8881 27.4375 39.25 27.0757 39.25 26.625V25C39.25 24.5493 38.8881 24.1875 38.4375 24.1875Z" fill="#526277"/>
</svg>
