<svg width="52" height="52" viewBox="0 0 52 52" fill="none" xmlns="http://www.w3.org/2000/svg">
<path d="M20.5625 0C9.36206 0 0.25 9.11206 0.25 20.3125C0.25 31.5129 9.36206 40.625 20.5625 40.625C25.0439 40.625 29.1858 39.165 32.5469 36.699C32.5469 36.699 34.8035 38.908 34.9114 38.946C34.9114 38.9651 34.9082 38.981 34.9082 39C34.9082 40.0854 35.3303 41.1074 36.0984 41.8723L44.5027 50.2766C45.2961 51.0701 46.334 51.4636 47.375 51.4636C48.416 51.4636 49.457 51.0701 50.2473 50.2766L50.5266 49.9941C51.2947 49.2292 51.7168 48.2104 51.7168 47.125C51.7168 46.0396 51.2947 45.0176 50.5266 44.2527L42.1223 35.8484C41.3162 35.0422 40.2561 34.6519 39.1992 34.6677C39.158 34.5566 36.949 32.2969 36.949 32.2969C39.415 28.9358 40.875 24.7939 40.875 20.3125C40.875 9.11206 31.7629 0 20.5625 0ZM20.5625 1.625C30.8679 1.625 39.25 10.0071 39.25 20.3125C39.25 30.6179 30.8679 39 20.5625 39C10.2571 39 1.875 30.6179 1.875 20.3125C1.875 10.0071 10.2571 1.625 20.5625 1.625ZM20.5625 4.875C16.4397 4.875 12.5613 6.48096 9.64453 9.39453C3.62695 15.4153 3.62695 25.2097 9.64453 31.2273C12.5613 34.144 16.4397 35.75 20.5625 35.75C24.6853 35.75 28.5637 34.144 31.4805 31.2305C37.498 25.2097 37.498 15.4153 31.4805 9.39453C28.5637 6.48096 24.6853 4.875 20.5625 4.875ZM20.5625 6.5C24.2505 6.5 27.7195 7.93774 30.3284 10.5466C35.7144 15.9294 35.7144 24.6956 30.3284 30.0784C27.7195 32.6873 24.2505 34.125 20.5625 34.125C16.8745 34.125 13.4055 32.6873 10.7966 30.0784C5.41065 24.6956 5.41065 15.9326 10.7966 10.5466C13.4055 7.93774 16.8745 6.5 20.5625 6.5ZM20.407 8.9375C17.4521 8.97241 14.6338 10.1531 12.5168 12.2668C12.1995 12.5874 12.1995 13.0984 12.5168 13.4189C12.6755 13.5745 12.885 13.657 13.0945 13.657C13.3008 13.657 13.5103 13.5745 13.6689 13.4189C15.7383 11.3464 18.5979 10.3213 21.521 10.6101C21.9685 10.6482 22.3652 10.3276 22.4097 9.88013C22.4541 9.43262 22.1272 9.03589 21.6797 8.99146C21.2544 8.9502 20.8291 8.93115 20.407 8.9375ZM26.1357 10.4609C25.8247 10.4165 25.4978 10.5593 25.3232 10.8481C25.0916 11.2322 25.2153 11.7305 25.6025 11.9622C26.269 12.3684 26.8943 12.8572 27.4561 13.4189C27.6147 13.5776 27.821 13.657 28.0305 13.657C28.24 13.657 28.4463 13.5776 28.6082 13.4189C28.9224 13.1016 28.9224 12.5874 28.6082 12.27C27.9512 11.6162 27.2212 11.0449 26.4404 10.572C26.3452 10.5149 26.2405 10.4768 26.1357 10.4609ZM9.1875 19.5C8.73999 19.5 8.375 19.8618 8.375 20.3125C8.375 20.7632 8.73999 21.125 9.1875 21.125H10.8125C11.26 21.125 11.625 20.7632 11.625 20.3125C11.625 19.8618 11.26 19.5 10.8125 19.5H9.1875ZM30.3125 19.5C29.865 19.5 29.5 19.8618 29.5 20.3125C29.5 20.7632 29.865 21.125 30.3125 21.125H31.9375C32.385 21.125 32.75 20.7632 32.75 20.3125C32.75 19.8618 32.385 19.5 31.9375 19.5H30.3125ZM11.5361 23.1531C11.4314 23.1499 11.3203 23.1689 11.2188 23.2102L9.71118 23.8196C9.29541 23.9878 9.09546 24.4607 9.26367 24.8765C9.39062 25.1938 9.69531 25.3875 10.0159 25.3875C10.1174 25.3875 10.2222 25.3684 10.3206 25.3271L11.8281 24.7178C12.2439 24.5496 12.4438 24.0767 12.2756 23.6609C12.1487 23.3499 11.8535 23.1562 11.5361 23.1531ZM29.5381 23.3086C29.2207 23.3086 28.9192 23.4958 28.7891 23.8037C28.6145 24.2195 28.8049 24.6956 29.2207 24.8701L30.7156 25.5049C30.8171 25.5493 30.925 25.5684 31.033 25.5684C31.3503 25.5684 31.6487 25.3843 31.782 25.0732C31.9565 24.6606 31.7629 24.1846 31.3503 24.01L29.8555 23.3752C29.7507 23.3308 29.6428 23.3086 29.5381 23.3086ZM13.6689 26.3936C13.4595 26.3936 13.2532 26.4729 13.0945 26.6316L11.9456 27.7805C11.6282 28.0979 11.6282 28.6121 11.9456 28.9294C12.1042 29.0881 12.3105 29.1675 12.52 29.1675C12.7295 29.1675 12.9358 29.0881 13.0945 28.9294L14.2434 27.7805C14.5608 27.4631 14.5608 26.949 14.2434 26.6316C14.0847 26.4729 13.8752 26.3936 13.6689 26.3936ZM27.4561 26.3936C27.2498 26.3936 27.0403 26.4729 26.8816 26.6316C26.5642 26.949 26.5642 27.4631 26.8816 27.7805L28.0305 28.9294C28.1892 29.0881 28.3955 29.1675 28.605 29.1675C28.8145 29.1675 29.0208 29.0881 29.1794 28.9294C29.4968 28.6121 29.4968 28.0979 29.1794 27.7805L28.0305 26.6316C27.8718 26.4729 27.6624 26.3936 27.4561 26.3936ZM16.7539 28.4756C16.4365 28.4756 16.135 28.6597 16.0049 28.9707L15.3701 30.4656C15.1956 30.8782 15.3892 31.3574 15.8018 31.532C15.9065 31.5764 16.0112 31.5955 16.1191 31.5955C16.4333 31.5955 16.7349 31.4082 16.8682 31.1003L17.5029 29.6055C17.6775 29.1929 17.4839 28.7136 17.0713 28.5391C16.9666 28.4946 16.8586 28.4756 16.7539 28.4756ZM24.2283 28.5391C24.1235 28.5391 24.0125 28.5581 23.9109 28.5994C23.4919 28.7676 23.292 29.2405 23.4602 29.6562L24.0696 31.1638C24.1965 31.4812 24.5012 31.6716 24.825 31.6716C24.9265 31.6716 25.0281 31.6526 25.1296 31.6113C25.5454 31.4431 25.7454 30.9702 25.5771 30.5544L24.9678 29.0469C24.8408 28.7358 24.5457 28.5454 24.2283 28.5391ZM20.5625 29.25C20.115 29.25 19.75 29.6118 19.75 30.0625V31.6875C19.75 32.1382 20.115 32.5 20.5625 32.5C21.01 32.5 21.375 32.1382 21.375 31.6875V30.0625C21.375 29.6118 21.01 29.25 20.5625 29.25ZM35.927 33.5759L37.4504 35.1025C37.0664 35.293 36.6982 35.531 36.3777 35.8516L36.0984 36.1277C35.781 36.4451 35.543 36.8101 35.3494 37.1973L33.8259 35.677C34.5781 35.0295 35.2795 34.3281 35.927 33.5759ZM39.25 36.2832C39.8752 36.2832 40.5005 36.5212 40.9766 36.9973L49.3809 45.4016C49.8411 45.8618 50.0918 46.4744 50.0918 47.125C50.0918 47.7756 49.8379 48.3882 49.3777 48.8484L49.0984 49.1277C48.1462 50.0767 46.6038 50.0767 45.6516 49.1277L37.2473 40.7234C36.7871 40.2632 36.5332 39.6506 36.5332 39C36.5332 38.3494 36.7871 37.7368 37.2473 37.2766L37.5266 36.9973C38.0027 36.5212 38.6279 36.2832 39.25 36.2832Z" fill="#526277"/>
</svg>
