<svg width="13" height="12" viewBox="0 0 13 12" fill="none" xmlns="http://www.w3.org/2000/svg">
<path d="M11.5667 12L7.36667 7.8C7.03333 8.06667 6.65 8.27778 6.21667 8.43333C5.78333 8.58889 5.32222 8.66667 4.83333 8.66667C3.62222 8.66667 2.59722 8.24722 1.75833 7.40833C0.919445 6.56944 0.5 5.54444 0.5 4.33333C0.5 3.12222 0.919445 2.09722 1.75833 1.25833C2.59722 0.419445 3.62222 0 4.83333 0C6.04444 0 7.06944 0.419445 7.90833 1.25833C8.74722 2.09722 9.16667 3.12222 9.16667 4.33333C9.16667 4.82222 9.08889 5.28333 8.93333 5.71667C8.77778 6.15 8.56667 6.53333 8.3 6.86667L12.5 11.0667L11.5667 12ZM4.83333 7.33333C5.66667 7.33333 6.375 7.04167 6.95833 6.45833C7.54167 5.875 7.83333 5.16667 7.83333 4.33333C7.83333 3.5 7.54167 2.79167 6.95833 2.20833C6.375 1.625 5.66667 1.33333 4.83333 1.33333C4 1.33333 3.29167 1.625 2.70833 2.20833C2.125 2.79167 1.83333 3.5 1.83333 4.33333C1.83333 5.16667 2.125 5.875 2.70833 6.45833C3.29167 7.04167 4 7.33333 4.83333 7.33333Z" fill="#F1F4FF"/>
</svg>
