<svg width="19" height="19" viewBox="0 0 19 19" fill="none" xmlns="http://www.w3.org/2000/svg">
<path d="M7.25 0C3.25482 0 0 3.25482 0 7.25C0 11.2452 3.25482 14.5 7.25 14.5C8.97818 14.5 10.5669 13.8895 11.8145 12.875L16.7197 17.7803C16.7888 17.8523 16.8716 17.9097 16.9632 17.9493C17.0548 17.9889 17.1534 18.0098 17.2532 18.0108C17.3529 18.0118 17.4519 17.9929 17.5443 17.9552C17.6367 17.9175 17.7206 17.8617 17.7912 17.7912C17.8617 17.7206 17.9175 17.6367 17.9552 17.5443C17.9929 17.4519 18.0118 17.3529 18.0108 17.2532C18.0098 17.1534 17.9889 17.0548 17.9493 16.9632C17.9097 16.8716 17.8523 16.7888 17.7803 16.7197L12.875 11.8145C13.8895 10.5669 14.5 8.97818 14.5 7.25C14.5 3.25482 11.2452 0 7.25 0ZM7.25 1.5C10.4345 1.5 13 4.06548 13 7.25C13 8.80131 12.3881 10.2029 11.3955 11.2354C11.3343 11.2803 11.2803 11.3343 11.2354 11.3955C10.2029 12.3881 8.80131 13 7.25 13C4.06548 13 1.5 10.4345 1.5 7.25C1.5 4.06548 4.06548 1.5 7.25 1.5ZM7.22559 2.5C7.03068 2.50414 6.84504 2.584 6.70801 2.72266L5.7168 3.72266C5.64529 3.79218 5.58837 3.87527 5.54936 3.96706C5.51035 4.05886 5.49004 4.1575 5.48961 4.25724C5.48919 4.35698 5.50866 4.45579 5.54688 4.54791C5.58511 4.64003 5.64132 4.72361 5.71224 4.79374C5.78315 4.86387 5.86734 4.91916 5.95987 4.95637C6.05241 4.99357 6.15144 5.01195 6.25116 5.01042C6.35089 5.00889 6.44931 4.98749 6.54066 4.94747C6.63201 4.90745 6.71447 4.84962 6.7832 4.77734L7.24512 4.31055L7.72266 4.7832C7.79218 4.85471 7.87527 4.91163 7.96706 4.95064C8.05886 4.98965 8.15751 5.00996 8.25724 5.01039C8.35698 5.01081 8.45579 4.99134 8.54791 4.95312C8.64003 4.91489 8.72361 4.85868 8.79374 4.78776C8.86387 4.71685 8.91916 4.63266 8.95637 4.54013C8.99357 4.44759 9.01195 4.34856 9.01042 4.24884C9.00889 4.14911 8.9875 4.05069 8.94747 3.95934C8.90745 3.86799 8.84962 3.78553 8.77734 3.7168L7.76855 2.7168C7.69717 2.64615 7.61233 2.59056 7.51906 2.55332C7.42579 2.51608 7.32599 2.49795 7.22559 2.5ZM10.2461 5.49219C10.0969 5.49146 9.95081 5.53526 9.82661 5.61799C9.7024 5.70072 9.60571 5.81862 9.54887 5.95661C9.49204 6.0946 9.47767 6.2464 9.50758 6.3926C9.53749 6.53881 9.61034 6.67277 9.7168 6.77734L10.1895 7.25488L9.72266 7.7168C9.65038 7.78553 9.59255 7.86799 9.55253 7.95934C9.5125 8.05069 9.49111 8.14911 9.48958 8.24884C9.48805 8.34856 9.50643 8.44759 9.54363 8.54013C9.58084 8.63266 9.63613 8.71685 9.70626 8.78776C9.77639 8.85868 9.85997 8.91489 9.95209 8.95312C10.0442 8.99134 10.143 9.01081 10.2428 9.01039C10.3425 9.00996 10.4411 8.98965 10.5329 8.95064C10.6247 8.91163 10.7078 8.85471 10.7773 8.7832L11.7773 7.79199C11.9187 7.65211 11.9988 7.46181 11.9999 7.26293C12.001 7.06405 11.923 6.87288 11.7832 6.73145L10.7832 5.72266C10.7137 5.65025 10.6303 5.59254 10.538 5.55295C10.4458 5.51337 10.3465 5.4927 10.2461 5.49219ZM4.23145 5.49316C4.03659 5.49987 3.852 5.58218 3.7168 5.72266L2.7168 6.73145C2.57697 6.87288 2.49904 7.06405 2.50014 7.26293C2.50124 7.46181 2.58128 7.65211 2.72266 7.79199L3.72266 8.7832C3.79218 8.85471 3.87527 8.91163 3.96706 8.95064C4.05886 8.98965 4.1575 9.00996 4.25724 9.01039C4.35698 9.01081 4.45579 8.99134 4.54791 8.95312C4.64003 8.91489 4.72361 8.85868 4.79374 8.78776C4.86387 8.71685 4.91916 8.63266 4.95637 8.54013C4.99357 8.44759 5.01195 8.34856 5.01042 8.24884C5.00889 8.14911 4.98749 8.05069 4.94747 7.95934C4.90745 7.86799 4.84962 7.78553 4.77734 7.7168L4.31055 7.25488L4.7832 6.77734C4.89084 6.67139 4.96398 6.53542 4.99305 6.38721C5.02213 6.239 5.00579 6.08547 4.94617 5.9467C4.88655 5.80794 4.78642 5.6904 4.6589 5.60948C4.53137 5.52856 4.38239 5.48802 4.23145 5.49316ZM8.24609 9.49023C8.04859 9.49388 7.86049 9.5753 7.72266 9.7168L7.24512 10.1895L6.7832 9.72266C6.71366 9.65025 6.63028 9.59254 6.53802 9.55295C6.44576 9.51337 6.34649 9.4927 6.24609 9.49219C6.09686 9.49146 5.95081 9.53526 5.82661 9.61799C5.7024 9.70072 5.60571 9.81862 5.54887 9.95661C5.49204 10.0946 5.47767 10.2464 5.50758 10.3926C5.53749 10.5388 5.61034 10.6728 5.7168 10.7773L6.70801 11.7773C6.84789 11.9187 7.03819 11.9988 7.23707 11.9999C7.43595 12.001 7.62712 11.923 7.76855 11.7832L8.77734 10.7832C8.88671 10.679 8.96206 10.5442 8.99353 10.3964C9.025 10.2487 9.01112 10.0949 8.9537 9.95512C8.89629 9.81538 8.79802 9.69624 8.67176 9.61329C8.5455 9.53034 8.39714 9.48745 8.24609 9.49023Z" fill="#8697AA"/>
</svg>
