<svg width="20" height="20" viewBox="0 0 20 20" fill="none" xmlns="http://www.w3.org/2000/svg">
<path d="M11 0C10.529 0 10.1357 0.360078 10.0977 0.830078L10.082 1.01953C10.0793 1.05251 10.093 1.08098 10.0938 1.11328C9.31009 1.29551 8.61956 1.70573 8.08789 2.27344C8.05996 2.2564 8.04206 2.22909 8.01172 2.21484L7.8418 2.13477C7.4158 1.93377 6.90592 2.092 6.66992 2.5C6.43392 2.908 6.5505 3.42731 6.9375 3.69531L7.09375 3.80469C7.12369 3.82543 7.15813 3.82904 7.18945 3.8457C7.07799 4.21341 7 4.59591 7 5C7 5.40409 7.07799 5.78659 7.18945 6.1543C7.15813 6.17095 7.12369 6.17457 7.09375 6.19531L6.9375 6.30273C6.5505 6.57173 6.43392 7.092 6.66992 7.5C6.90592 7.908 7.4158 8.06623 7.8418 7.86523L8.01172 7.78516C8.04196 7.77089 8.06004 7.74359 8.08789 7.72656C8.61915 8.29383 9.30889 8.70427 10.0918 8.88672C10.091 8.91902 10.0774 8.94749 10.0801 8.98047L10.0977 9.16992C10.1367 9.63992 10.529 10 11 10C11.471 10 11.8643 9.63992 11.9023 9.16992L11.918 8.98047C11.9207 8.94749 11.907 8.91902 11.9062 8.88672C12.6899 8.70449 13.3804 8.29427 13.9121 7.72656C13.94 7.74366 13.9579 7.77084 13.9883 7.78516L14.1582 7.86719C14.5842 8.06819 15.0941 7.90995 15.3301 7.50195C15.5661 7.09395 15.4495 6.57369 15.0625 6.30469L14.9062 6.19531C14.8763 6.17457 14.8419 6.17096 14.8105 6.1543C14.922 5.78659 15 5.40409 15 5C15 4.59591 14.922 4.21341 14.8105 3.8457C14.8419 3.82905 14.8763 3.82543 14.9062 3.80469L15.0625 3.69727C15.4495 3.42827 15.5661 2.908 15.3301 2.5C15.0941 2.092 14.5842 1.93377 14.1582 2.13477L13.9883 2.21484C13.958 2.22911 13.94 2.25641 13.9121 2.27344C13.3809 1.70617 12.6911 1.29573 11.9082 1.11328C11.909 1.08098 11.9226 1.05251 11.9199 1.01953L11.9023 0.830078C11.8633 0.360078 11.471 0 11 0ZM11 3.5C11.828 3.5 12.5 4.172 12.5 5C12.5 5.828 11.828 6.5 11 6.5C10.172 6.5 9.5 5.828 9.5 5C9.5 4.172 10.172 3.5 11 3.5ZM18.5859 10C18.2239 10 17.8619 10.1381 17.5859 10.4141L13 15H9C8.724 15 8.5 14.776 8.5 14.5C8.5 14.224 8.724 14 9 14H11C12.105 14 13 13.105 13 12V11H6.65625C5.59525 11 4.57812 11.4209 3.82812 12.1719L0 16L4 20L6 18H13.1719C13.7019 18 14.2109 17.7891 14.5859 17.4141L19.5859 12.4141C20.1379 11.8621 20.1379 10.9661 19.5859 10.4141C19.3099 10.1381 18.9479 10 18.5859 10Z" fill="#020053"/>
</svg>
