<svg width="12" height="14" viewBox="0 0 12 14" fill="none" xmlns="http://www.w3.org/2000/svg">
<path d="M10 13.6663C9.44444 13.6663 8.97222 13.4719 8.58333 13.083C8.19444 12.6941 8 12.2219 8 11.6663C8 11.5886 8.00556 11.508 8.01667 11.4247C8.02778 11.3413 8.04445 11.2663 8.06667 11.1997L3.36667 8.46634C3.17778 8.63301 2.96667 8.76356 2.73333 8.85801C2.5 8.95245 2.25556 8.99967 2 8.99967C1.44444 8.99967 0.972222 8.80523 0.583333 8.41634C0.194444 8.02745 0 7.55523 0 6.99967C0 6.44412 0.194444 5.9719 0.583333 5.58301C0.972222 5.19412 1.44444 4.99967 2 4.99967C2.25556 4.99967 2.5 5.0469 2.73333 5.14134C2.96667 5.23579 3.17778 5.36634 3.36667 5.53301L8.06667 2.79967C8.04445 2.73301 8.02778 2.65801 8.01667 2.57467C8.00556 2.49134 8 2.41079 8 2.33301C8 1.77745 8.19444 1.30523 8.58333 0.916341C8.97222 0.527452 9.44444 0.333008 10 0.333008C10.5556 0.333008 11.0278 0.527452 11.4167 0.916341C11.8056 1.30523 12 1.77745 12 2.33301C12 2.88856 11.8056 3.36079 11.4167 3.74967C11.0278 4.13856 10.5556 4.33301 10 4.33301C9.74444 4.33301 9.5 4.28579 9.26667 4.19134C9.03333 4.0969 8.82222 3.96634 8.63333 3.79967L3.93333 6.53301C3.95556 6.59968 3.97222 6.67467 3.98333 6.75801C3.99444 6.84134 4 6.9219 4 6.99967C4 7.07745 3.99444 7.15801 3.98333 7.24134C3.97222 7.32467 3.95556 7.39967 3.93333 7.46634L8.63333 10.1997C8.82222 10.033 9.03333 9.90245 9.26667 9.80801C9.5 9.71356 9.74444 9.66634 10 9.66634C10.5556 9.66634 11.0278 9.86079 11.4167 10.2497C11.8056 10.6386 12 11.1108 12 11.6663C12 12.2219 11.8056 12.6941 11.4167 13.083C11.0278 13.4719 10.5556 13.6663 10 13.6663ZM10 2.99967C10.1889 2.99967 10.3472 2.93579 10.475 2.80801C10.6028 2.68023 10.6667 2.5219 10.6667 2.33301C10.6667 2.14412 10.6028 1.98579 10.475 1.85801C10.3472 1.73023 10.1889 1.66634 10 1.66634C9.81111 1.66634 9.65278 1.73023 9.525 1.85801C9.39722 1.98579 9.33333 2.14412 9.33333 2.33301C9.33333 2.5219 9.39722 2.68023 9.525 2.80801C9.65278 2.93579 9.81111 2.99967 10 2.99967ZM2 7.66634C2.18889 7.66634 2.34722 7.60245 2.475 7.47468C2.60278 7.3469 2.66667 7.18856 2.66667 6.99967C2.66667 6.81079 2.60278 6.65245 2.475 6.52467C2.34722 6.3969 2.18889 6.33301 2 6.33301C1.81111 6.33301 1.65278 6.3969 1.525 6.52467C1.39722 6.65245 1.33333 6.81079 1.33333 6.99967C1.33333 7.18856 1.39722 7.3469 1.525 7.47468C1.65278 7.60245 1.81111 7.66634 2 7.66634ZM10 12.333C10.1889 12.333 10.3472 12.2691 10.475 12.1413C10.6028 12.0136 10.6667 11.8552 10.6667 11.6663C10.6667 11.4775 10.6028 11.3191 10.475 11.1913C10.3472 11.0636 10.1889 10.9997 10 10.9997C9.81111 10.9997 9.65278 11.0636 9.525 11.1913C9.39722 11.3191 9.33333 11.4775 9.33333 11.6663C9.33333 11.8552 9.39722 12.0136 9.525 12.1413C9.65278 12.2691 9.81111 12.333 10 12.333Z" fill="#1006AC"/>
</svg>
