<svg width="132" height="132" viewBox="0 0 132 132" fill="none" xmlns="http://www.w3.org/2000/svg">
<path d="M84.5547 44H70.2437L65.9922 31.625L61.7407 44H47.4297L58.7322 52.7505L54.1782 66H54.2524L65.9977 58.4375L77.7319 66H77.8062L73.2522 52.7533L84.5547 44Z" fill="#F5BC00"/>
<path d="M58.7305 52.7533L65.996 58.4375L73.2505 52.7533L70.2447 44H61.739L58.7305 52.7533Z" fill="#EB7900"/>
<path d="M40.5625 44H26.2515L22 31.625L17.7458 44H3.4375L14.7373 52.7505L10.186 66H10.2603L22.0028 58.4375L33.737 66H33.8113L29.26 52.7533L40.5625 44Z" fill="#F5BC00"/>
<path d="M14.7383 52.7533L22.0038 58.4375L29.261 52.7533L26.2525 44H17.7468L14.7383 52.7533Z" fill="#EB7900"/>
<path d="M106.562 82.5H92.2515L88 70.125L83.7457 82.5H69.4375L80.7372 91.2505L76.186 104.5H76.2603L88.0027 96.9375L99.737 104.5H99.8112L95.26 91.2532L106.562 82.5Z" fill="#F5BC00"/>
<path d="M80.7383 91.2532L88.0038 96.9375L95.261 91.2532L92.2525 82.5H83.7468L80.7383 91.2532Z" fill="#EB7900"/>
<path d="M62.5703 82.5H48.2593L44.0078 70.125L39.7536 82.5H25.4453L36.7451 91.2505L32.1938 104.5H32.2681L44.0106 96.9375L55.7448 104.5H55.8191L51.2678 91.2532L62.5703 82.5Z" fill="#F5BC00"/>
<path d="M36.7461 91.2532L44.0116 96.9375L51.2688 91.2532L48.2603 82.5H39.7546L36.7461 91.2532Z" fill="#EB7900"/>
<path d="M128.562 44H114.252L110 31.625L105.746 44H91.4375L102.737 52.7505L98.186 66H98.2602L110.003 58.4375L121.737 66H121.811L117.26 52.7533L128.562 44Z" fill="#F5BC00"/>
<path d="M102.738 52.7533L110.004 58.4375L117.261 52.7533L114.253 44H105.747L102.738 52.7533Z" fill="#EB7900"/>
</svg>
