<svg width="12" height="4" viewBox="0 0 12 4" fill="none" xmlns="http://www.w3.org/2000/svg">
<path d="M1.99935 3.33268C1.63268 3.33268 1.31879 3.20213 1.05768 2.94102C0.796571 2.6799 0.666016 2.36602 0.666016 1.99935C0.666016 1.63268 0.796571 1.31879 1.05768 1.05768C1.31879 0.796571 1.63268 0.666016 1.99935 0.666016C2.36602 0.666016 2.6799 0.796571 2.94102 1.05768C3.20213 1.31879 3.33268 1.63268 3.33268 1.99935C3.33268 2.36602 3.20213 2.6799 2.94102 2.94102C2.6799 3.20213 2.36602 3.33268 1.99935 3.33268ZM5.99935 3.33268C5.63268 3.33268 5.31879 3.20213 5.05768 2.94102C4.79657 2.6799 4.66602 2.36602 4.66602 1.99935C4.66602 1.63268 4.79657 1.31879 5.05768 1.05768C5.31879 0.796571 5.63268 0.666016 5.99935 0.666016C6.36602 0.666016 6.6799 0.796571 6.94102 1.05768C7.20213 1.31879 7.33268 1.63268 7.33268 1.99935C7.33268 2.36602 7.20213 2.6799 6.94102 2.94102C6.6799 3.20213 6.36602 3.33268 5.99935 3.33268ZM9.99935 3.33268C9.63268 3.33268 9.31879 3.20213 9.05768 2.94102C8.79657 2.6799 8.66602 2.36602 8.66602 1.99935C8.66602 1.63268 8.79657 1.31879 9.05768 1.05768C9.31879 0.796571 9.63268 0.666016 9.99935 0.666016C10.366 0.666016 10.6799 0.796571 10.941 1.05768C11.2021 1.31879 11.3327 1.63268 11.3327 1.99935C11.3327 2.36602 11.2021 2.6799 10.941 2.94102C10.6799 3.20213 10.366 3.33268 9.99935 3.33268Z" fill="#171A1F"/>
</svg>
