<svg width="14" height="14" viewBox="0 0 14 14" fill="none" xmlns="http://www.w3.org/2000/svg">
<path d="M5.00152 0.340488C4.28249 0.376988 3.59894 0.791968 3.26194 1.45247L2.64996 2.65038L1.45204 3.26236C0.549374 3.72303 0.121812 4.75736 0.433812 5.7207L0.847874 7.00064L0.433812 8.28189C0.121145 9.24523 0.548072 10.2789 1.45074 10.7402L2.64866 11.3509L3.26194 12.5488C3.71194 13.4302 4.7803 13.8737 5.71897 13.5684L7.00022 13.153L8.28017 13.5671C8.48483 13.6337 8.69701 13.6673 8.91168 13.6673C9.68634 13.6673 10.3858 13.2388 10.7385 12.5488L11.3505 11.3509L12.5497 10.7389C13.4517 10.2776 13.8793 9.24326 13.5666 8.28059L13.1526 7.00064L13.5666 5.7207C13.8793 4.7567 13.4524 3.72303 12.5497 3.26236L11.3518 2.65038L10.7385 1.45247C10.2898 0.571801 9.21947 0.129572 8.28147 0.434238L7.00022 0.848301L5.72027 0.43554C5.4841 0.358707 5.2412 0.328322 5.00152 0.340488ZM5.05491 1.66861C5.1391 1.66452 5.22578 1.67463 5.31011 1.70247L6.79449 2.18294C6.92849 2.22627 7.07325 2.22627 7.20725 2.18294L8.69293 1.70117C9.02226 1.59317 9.39433 1.74994 9.551 2.05794L10.2619 3.44856C10.3259 3.57323 10.4263 3.67493 10.551 3.73893L11.9429 4.44986C12.2583 4.6112 12.4077 4.97321 12.2984 5.31054L11.8179 6.79492C11.7746 6.92825 11.7746 7.07174 11.8179 7.20507L11.8843 7.4108L12.2984 8.69075C12.4077 9.02808 12.2589 9.39009 11.9429 9.55143L10.551 10.2624C10.4263 10.3264 10.3259 10.4268 10.2619 10.5514L9.551 11.9421C9.39433 12.2494 9.02762 12.4088 8.69162 12.2988L7.20595 11.8184C7.13928 11.7964 7.06955 11.7858 7.00022 11.7858C6.93088 11.7858 6.86116 11.7957 6.79449 11.8184L5.30881 12.3001C4.97881 12.4081 4.60544 12.2507 4.44944 11.9434L3.7398 10.5527C3.6758 10.4281 3.5741 10.3264 3.44944 10.2624L2.05881 9.55143C1.74348 9.39009 1.59271 9.02808 1.70204 8.69075L2.18251 7.20637C2.22584 7.07304 2.22584 6.92955 2.18251 6.79622L1.70204 5.31054C1.59271 4.97321 1.74281 4.6112 2.05881 4.44986L3.44944 3.73893C3.57344 3.67493 3.67517 3.57453 3.7385 3.44986L4.44944 2.05924C4.56694 1.82824 4.80231 1.68089 5.05491 1.66861ZM9.8622 4.52929L6.33355 8.05794L4.80491 6.52929L3.8622 7.472L6.33355 9.94335L10.8049 5.472L9.8622 4.52929Z" fill="#1006AC"/>
</svg>
