<svg width="20" height="21" viewBox="0 0 20 21" fill="none" xmlns="http://www.w3.org/2000/svg">
<path d="M7.00033 0.509756C5.92178 0.564506 4.89645 1.18697 4.39095 2.17772L3.47298 3.9746L1.67611 4.89257C0.322108 5.58357 -0.319236 7.13507 0.148765 8.58007L0.769858 10.5L0.148765 12.4219C-0.320235 13.8669 0.320155 15.4174 1.67416 16.1094L3.47103 17.0254L4.39095 18.8223C5.06595 20.1443 6.6685 20.8096 8.0765 20.3516L9.99837 19.7285L11.9183 20.3496C12.2253 20.4496 12.5436 20.5 12.8656 20.5C14.0276 20.5 15.0768 19.8573 15.6058 18.8223L16.5238 17.0254L18.3226 16.1074C19.6756 15.4154 20.317 13.8639 19.848 12.4199L19.2269 10.5L19.848 8.58007C20.317 7.13407 19.6766 5.58357 18.3226 4.89257L16.5257 3.9746L15.6058 2.17772C14.9328 0.856725 13.3272 0.193381 11.9202 0.650381L9.99837 1.27147L8.07845 0.652334C7.7242 0.537084 7.35984 0.491506 7.00033 0.509756ZM7.08041 2.50194C7.2067 2.4958 7.33672 2.51097 7.46322 2.55272L9.68978 3.27343C9.89078 3.33843 10.1079 3.33843 10.3089 3.27343L12.5374 2.55077C13.0314 2.38877 13.5895 2.62393 13.8245 3.08593L14.891 5.17187C14.987 5.35887 15.1375 5.51141 15.3245 5.60741L17.4124 6.67382C17.8854 6.91582 18.1096 7.45883 17.9456 7.96483L17.2249 10.1914C17.1599 10.3914 17.1599 10.6066 17.2249 10.8066L17.3245 11.1152L17.9456 13.0351C18.1096 13.5411 17.8864 14.0842 17.4124 14.3262L15.3245 15.3926C15.1375 15.4886 14.987 15.6392 14.891 15.8262L13.8245 17.9121C13.5895 18.3731 13.0395 18.6123 12.5355 18.4473L10.307 17.7266C10.207 17.6936 10.1024 17.6777 9.99837 17.6777C9.89437 17.6777 9.78978 17.6926 9.68978 17.7266L7.46126 18.4492C6.96626 18.6112 6.4062 18.3751 6.1722 17.9141L5.10775 15.8281C5.01175 15.6411 4.8592 15.4886 4.6722 15.3926L2.58626 14.3262C2.11326 14.0842 1.88711 13.5411 2.05111 13.0351L2.77181 10.8086C2.83681 10.6086 2.83681 10.3933 2.77181 10.1933L2.05111 7.96483C1.88711 7.45883 2.11226 6.91582 2.58626 6.67382L4.6722 5.60741C4.8582 5.51141 5.0108 5.36082 5.1058 5.17382L6.1722 3.08788C6.34845 2.74138 6.70151 2.52037 7.08041 2.50194ZM14.2913 6.79296L8.99837 12.0859L6.70541 9.79296L5.29134 11.207L8.99837 14.9141L15.7054 8.20702L14.2913 6.79296Z" fill="#526277"/>
</svg>
