<svg width="16" height="20" viewBox="0 0 16 20" fill="none" xmlns="http://www.w3.org/2000/svg">
<path d="M8.00982 13.6807C7.76512 13.6832 7.52962 13.587 7.35662 13.4139C7.17982 13.2434 7.08302 13.0063 7.08982 12.7607C7.08062 12.2547 7.48542 11.8499 7.99142 11.8407H8.00982C8.26742 11.8407 8.47902 11.9327 8.66302 12.1075C8.82862 12.2823 8.92062 12.5031 8.92062 12.7515C8.92062 12.9999 8.82862 13.2207 8.65382 13.4047C8.47902 13.5887 8.25822 13.6807 8.00982 13.6807ZM7.20022 10.3135C7.20022 9.89953 7.29222 9.54073 7.46702 9.24633C7.64182 8.94278 7.95463 8.60238 8.38702 8.21598C8.64462 7.98598 8.82862 7.78358 8.94823 7.60878C9.06783 7.43398 9.12302 7.24078 9.12302 7.01998C9.12302 6.75318 9.02182 6.53238 8.82862 6.33918C8.63542 6.15518 8.36862 6.06318 8.04662 6.06318C7.70622 6.06318 7.36582 6.15518 7.16342 6.33918C6.97022 6.52318 6.79542 6.75318 6.79542 7.24078H5.24062C5.24062 6.31158 5.66382 5.64918 6.13302 5.20758C6.64822 4.73838 7.31062 4.48078 8.00062 4.48078C8.54342 4.48078 9.02182 4.59118 9.44502 4.80278C9.86822 5.01438 10.1718 5.30878 10.411 5.68598C10.6502 6.06318 10.7606 6.47718 10.7606 6.92798C10.7606 7.37878 10.6686 7.75598 10.4754 8.07798C10.2822 8.39998 10.0338 8.73118 9.65662 9.08073C9.36222 9.35673 9.16902 9.59593 9.05862 9.78913C8.94822 9.98233 8.89302 10.2399 8.89302 10.5343V10.9207H7.19102V10.3135H7.20022ZM13.5206 8.34478C13.5206 5.00518 11.0826 2.64078 8.00062 2.64078C4.91862 2.64078 2.48062 5.00518 2.48062 8.34478C2.48062 10.4975 4.27462 13.3495 8.00062 16.7535C11.7266 13.3495 13.5206 10.4975 13.5206 8.34478ZM8.00062 0.800781C11.8646 0.800781 15.3606 3.76318 15.3606 8.34478C15.3606 11.3991 12.9042 15.0147 8.00062 19.2007C3.09702 15.0147 0.640625 11.3991 0.640625 8.34478C0.640625 3.76318 4.13662 0.800781 8.00062 0.800781Z" fill="#FF9799"/>
</svg>
