<svg width="18" height="10" viewBox="0 0 18 10" fill="none" xmlns="http://www.w3.org/2000/svg">
<path d="M4 2V0H18V2H4ZM4 6V4H18V6H4ZM4 10V8H18V10H4ZM1 2C0.716667 2 0.479167 1.90417 0.2875 1.7125C0.0958333 1.52083 0 1.28333 0 1C0 0.716667 0.0958333 0.479167 0.2875 0.2875C0.479167 0.0958333 0.716667 0 1 0C1.28333 0 1.52083 0.0958333 1.7125 0.2875C1.90417 0.479167 2 0.716667 2 1C2 1.28333 1.90417 1.52083 1.7125 1.7125C1.52083 1.90417 1.28333 2 1 2ZM1 6C0.716667 6 0.479167 5.90417 0.2875 5.7125C0.0958333 5.52083 0 5.28333 0 5C0 4.71667 0.0958333 4.47917 0.2875 4.2875C0.479167 4.09583 0.716667 4 1 4C1.28333 4 1.52083 4.09583 1.7125 4.2875C1.90417 4.47917 2 4.71667 2 5C2 5.28333 1.90417 5.52083 1.7125 5.7125C1.52083 5.90417 1.28333 6 1 6ZM1 10C0.716667 10 0.479167 9.90417 0.2875 9.7125C0.0958333 9.52083 0 9.28333 0 9C0 8.71667 0.0958333 8.47917 0.2875 8.2875C0.479167 8.09583 0.716667 8 1 8C1.28333 8 1.52083 8.09583 1.7125 8.2875C1.90417 8.47917 2 8.71667 2 9C2 9.28333 1.90417 9.52083 1.7125 9.7125C1.52083 9.90417 1.28333 10 1 10Z" fill="#8697AA"/>
</svg>
