<svg width="17" height="18" viewBox="0 0 17 18" fill="none" xmlns="http://www.w3.org/2000/svg">
<path d="M8.50985 0.666016C3.92151 0.666016 0.186318 4.39799 0.184652 8.98633C0.183818 10.453 0.567972 11.8848 1.29631 13.1465L0.166748 17.3327L4.5271 16.3024C5.74293 16.9657 7.11163 17.3139 8.50496 17.3148H8.50822C13.0957 17.3148 16.8293 13.582 16.8318 8.99447C16.8335 6.7703 15.9686 4.67913 14.3969 3.10579C12.8252 1.53329 10.7365 0.666849 8.50985 0.666016ZM8.50822 2.33268C10.2882 2.33352 11.961 3.02751 13.2185 4.28418C14.476 5.54251 15.1668 7.21451 15.1651 8.99284C15.1635 12.6628 12.1783 15.6481 8.50659 15.6481C7.39576 15.6473 6.29542 15.3684 5.32625 14.8392L4.76473 14.5332L4.14461 14.6797L2.50399 15.0671L2.90438 13.5794L3.08504 12.9121L2.73999 12.3132C2.15832 11.3065 1.85049 10.1555 1.85132 8.98633C1.85299 5.318 4.83905 2.33268 8.50822 2.33268ZM5.56388 5.14518C5.42472 5.14518 5.1997 5.19727 5.00887 5.4056C4.81804 5.6131 4.2797 6.11566 4.2797 7.139C4.2797 8.16233 5.02515 9.15152 5.12931 9.29069C5.23265 9.42902 6.56821 11.5954 8.68237 12.4287C10.439 13.1212 10.7958 12.9845 11.1775 12.9495C11.5592 12.9154 12.4088 12.4474 12.5821 11.9616C12.7554 11.4758 12.7558 11.0578 12.7042 10.972C12.6525 10.8853 12.5138 10.8337 12.3054 10.7295C12.0979 10.6253 11.0754 10.1232 10.8845 10.054C10.6937 9.98487 10.5541 9.94987 10.4158 10.1582C10.2774 10.3665 9.87989 10.8337 9.75822 10.972C9.63655 11.1112 9.51571 11.1299 9.30737 11.0257C9.09904 10.9207 8.4292 10.7005 7.6342 9.99219C7.01586 9.44135 6.59864 8.76172 6.47697 8.55339C6.35614 8.34589 6.46558 8.23191 6.56974 8.12858C6.66308 8.03525 6.77645 7.88566 6.88062 7.764C6.98395 7.64233 7.01978 7.55565 7.08895 7.41732C7.15812 7.27898 7.12271 7.1569 7.07105 7.05273C7.01938 6.94857 6.61477 5.92143 6.42977 5.50977C6.27394 5.16393 6.10935 5.1559 5.96102 5.15007C5.84019 5.14507 5.70222 5.14518 5.56388 5.14518Z" fill="white"/>
</svg>
